<?xml version="1.0" encoding="iso-8859-1"?>
<!-- Generator: Adobe Illustrator 16.0.0, SVG Export Plug-In . SVG Version: 6.00 Build 0)  -->
<!DOCTYPE svg PUBLIC "-//W3C//DTD SVG 1.1//EN" "http://www.w3.org/Graphics/SVG/1.1/DTD/svg11.dtd">
<svg version="1.1" xmlns="http://www.w3.org/2000/svg" xmlns:xlink="http://www.w3.org/1999/xlink" x="0px" y="0px"
	 width="169.033px" height="79.042px" viewBox="0 0 169.033 79.042" style="enable-background:new 0 0 169.033 79.042;"
	 xml:space="preserve">
<g id="Layer_2" style="display:none;">
	<rect style="display:inline;" width="169.033" height="79.042"/>
</g>
<g id="Layer_1">
	<path style="fill:#FFFFFF;" d="M121.323,52.402c-1.158-1.277-2.031-2.408-2.804-4.094L108.2,26.405l-0.044-0.095h-1.515
		l-8.613,19.542c-1.982,4.576-2.78,5.6-3.69,6.545l-0.269,0.279h27.504L121.323,52.402z M113.85,49.029H99.36
		c0.168-0.68,0.391-1.336,0.661-1.955l6.683-14.778l6.775,15.833C113.62,48.455,113.742,48.751,113.85,49.029"/>
	<path style="fill:#FFFFFF;" d="M96.788,39.406c0-4.522-4.198-9.362-10.447-9.376c0.084-1.28,0.332-1.993,1.024-3.484l0.108-0.234
		h-7.206l0.184,0.261c0.686,0.976,0.926,2.148,1.007,3.461c-6.169,0.089-10.301,4.888-10.301,9.374
		c0,5.836,5.317,9.471,10.309,9.549c-0.078,1.391-0.315,1.916-0.968,3.354l-0.168,0.369h6.886l0.248-0.01l-0.102-0.23
		c-0.684-1.559-0.938-2.141-1.023-3.479C91.37,48.945,96.788,45.296,96.788,39.406 M75.922,39.406c0-3.615,1.47-7.479,5.578-7.582
		v15.388C77.392,47.107,75.922,43.128,75.922,39.406 M86.3,31.82h0.011c4.212,0.02,5.713,3.931,5.713,7.585
		c0,3.764-1.501,7.791-5.713,7.811H86.3V31.82z"/>
	<path style="fill:#FFFFFF;" d="M131.344,25.82c-6.711,0-11.397,5.685-11.397,13.824c0,8.674,4.154,13.369,11.397,13.369
		c7.195,0,11.322-4.695,11.322-13.369C142.666,33.267,139.7,25.82,131.344,25.82 M131.382,50.529c-4.253,0-6.321-3.385-6.321-10.924
		c0-6.971,2.422-11.304,6.321-11.304c3.979,0,6.172,4.015,6.172,11.304C137.554,47.041,135.478,50.529,131.382,50.529"/>
	<path style="fill:#FFFFFF;" d="M127.236,42.001v-4.453c1.464,0.68,1.908,0.758,3.686,0.758h0.742c1.988,0,2.222-0.105,3.712-0.758
		v4.453c-1.437-0.652-1.621-0.758-3.712-0.758h-0.742C129.406,41.244,128.203,41.322,127.236,42.001"/>
	<path style="fill:#FFFFFF;" d="M34.566,40.958h0.058c0,0,0.888,0.391,1.067,0.471c-0.019-0.197-0.116-1.162-0.116-1.162
		l0.017-0.055c0,0,0.648-0.725,0.779-0.873c-0.193-0.041-1.144-0.246-1.144-0.246l-0.046-0.033c0,0-0.486-0.838-0.587-1.008
		c-0.099,0.17-0.588,1.008-0.588,1.008l-0.046,0.033c0,0-0.949,0.205-1.142,0.246c0.132,0.148,0.778,0.873,0.778,0.873l0.018,0.055
		c0,0-0.098,0.965-0.117,1.162C33.679,41.349,34.566,40.958,34.566,40.958 M28.663,27.058c0,0.124-0.005,11.499-0.005,11.499
		c0,6.148,2.69,10.867,8.002,14.035c3.514,2.098,7.069,2.811,8.073,2.98V55.57c0,0,0.063,0.012,0.081,0.016
		c0.018-0.004,0.079-0.014,0.079-0.014h-0.001c1.006-0.17,4.563-0.883,8.077-2.98c0.284-0.168,0.561-0.344,0.831-0.525
		c0.001,0,0.495-0.338,0.497-0.34c0.284-0.201,0.556-0.41,0.823-0.623C55,50.992,28.76,27.095,28.713,27.053
		C28.696,27.055,28.68,27.056,28.663,27.058 M29.625,30.359l0.116-0.052l23.293,20.999l-0.009,0.109
		c-0.18,0.117-0.359,0.236-0.55,0.35c-3.271,1.953-6.576,2.654-7.648,2.842h-0.024c-1.074-0.188-4.379-0.889-7.649-2.842
		c-4.996-2.98-7.532-7.428-7.532-13.209L29.625,30.359z M51.813,32.263c-0.192-0.042-1.142-0.247-1.142-0.247l-0.045-0.033
		c0,0-0.489-0.838-0.588-1.01c-0.1,0.171-0.588,1.01-0.588,1.01l-0.046,0.033c0,0-0.949,0.205-1.143,0.247
		c0.131,0.147,0.778,0.872,0.778,0.872l0.018,0.054c0,0-0.098,0.966-0.118,1.163c0.182-0.08,1.069-0.472,1.069-0.472h0.057
		c0,0,0.89,0.392,1.07,0.472c-0.02-0.197-0.119-1.163-0.119-1.163l0.019-0.054C51.035,33.135,51.682,32.41,51.813,32.263
		 M31.911,23.544c0.046,0.042,26.331,23.979,26.452,24.09c0.285-0.418,0.552-0.848,0.789-1.293c0,0,0.108-0.207,0.109-0.209
		c1.135-2.213,1.708-4.742,1.708-7.576V23.535c-0.139,0-28.922,0.006-29.059,0.006V23.544z M35.37,24.503l24.567-0.005l0.07,0.069
		v13.989c0,2.553-0.495,4.844-1.479,6.867l-0.11,0.02L35.323,24.625L35.37,24.503z M64.73,51.921l-4.037-3.678
		c1.706-2.795,2.571-6.049,2.571-9.688V21.239l-27.617,0.006c0.039-0.269,0.02-0.543-0.065-0.802l-0.401-1.281
		c-0.114-0.364-0.375-1.197-1.272-1.267c-0.045-0.01-1.486-0.318-1.486-0.318c-0.113-0.023-0.232-0.035-0.354-0.035l-0.074,0.002
		c-0.613,0.024-1.191,0.353-1.507,0.852l-0.853,1.338c-0.015-0.015-0.031-0.03-0.048-0.045c-0.279-0.256-0.611-0.44-0.97-0.548
		c-0.139-0.346-0.354-0.659-0.638-0.917c-0.279-0.255-0.612-0.44-0.974-0.548c-0.138-0.346-0.351-0.66-0.63-0.915
		c-0.282-0.256-0.615-0.441-0.976-0.548c-0.138-0.347-0.352-0.662-0.632-0.917c-0.278-0.253-0.609-0.438-0.966-0.543
		c-0.139-0.349-0.354-0.661-0.637-0.917c-0.462-0.421-1.064-0.652-1.695-0.652l-0.103,0.002c-0.699,0.027-1.374,0.343-1.856,0.868
		l-1.395,1.532c-0.475,0.521-0.728,1.218-0.695,1.912c0.032,0.677,0.321,1.297,0.815,1.745c0.278,0.255,0.61,0.439,0.968,0.547
		c0.139,0.347,0.354,0.66,0.638,0.918c0.279,0.254,0.61,0.438,0.968,0.545c0.139,0.347,0.354,0.659,0.639,0.918
		c0.28,0.255,0.613,0.44,0.974,0.547c0.138,0.347,0.351,0.661,0.63,0.915c0.279,0.255,0.61,0.44,0.968,0.546
		c0.14,0.348,0.354,0.661,0.637,0.917c0.017,0.015,0.033,0.03,0.05,0.044l-1.251,0.971c-0.602,0.465-0.861,1.295-0.633,2.017
		c0,0,0.326,1.045,0.438,1.398c0.136,0.924,1.077,1.122,1.399,1.19l1.32,0.285c0.117,0.022,0.236,0.034,0.355,0.034h0.031
		l-0.003,7.521c0,16.762,18.114,19.301,18.298,19.324l0.152,0.02l0.152-0.02c0.254-0.033,5.973-0.813,10.977-4.516l4.084,3.721
		l6.791,1.447L64.73,51.921z M60.576,56.058l-0.032-0.016c0,0-4.458-4.061-4.544-4.141c-4.967,4.055-11.176,4.869-11.176,4.869
		h-0.019c0,0-17.324-2.225-17.324-18.215c0,0,0.005-9.329,0.005-9.787c-0.165,0.26-0.517,0.812-0.517,0.812v0.001
		c-0.127,0.194-0.364,0.323-0.604,0.334h-0.001c-0.055,0.002-0.109-0.002-0.163-0.013H26.2l-1.307-0.28h0.001
		c-0.326-0.069-0.52-0.101-0.529-0.313c-0.023-0.073-0.475-1.517-0.475-1.517v0.001c-0.088-0.279,0.019-0.62,0.249-0.798
		c0,0,2.3-1.784,2.353-1.824c-0.006-0.183,0.011-0.369,0.043-0.558c-0.04,0.006-0.081,0.012-0.123,0.013
		c-0.375,0.015-0.731-0.111-1.001-0.358c-0.274-0.248-0.434-0.594-0.451-0.973c-0.002-0.051,0.001-0.101,0.005-0.149
		c-0.052,0.008-0.104,0.017-0.158,0.019c-0.375,0.014-0.73-0.113-1.001-0.359c-0.322-0.294-0.466-0.709-0.442-1.123
		c-0.053,0.009-0.106,0.018-0.161,0.02c-0.376,0.015-0.73-0.113-1.001-0.358v-0.001c-0.286-0.26-0.446-0.622-0.452-1.02
		c0-0.034,0.002-0.069,0.005-0.103c-0.052,0.008-0.104,0.016-0.158,0.019c-0.375,0.015-0.729-0.112-1-0.358
		c-0.273-0.249-0.434-0.594-0.451-0.972c-0.003-0.052,0-0.103,0.004-0.152c-0.051,0.009-0.104,0.016-0.157,0.018
		c-0.375,0.017-0.731-0.112-1.001-0.358c-0.273-0.247-0.434-0.593-0.45-0.971c-0.02-0.401,0.128-0.804,0.404-1.105h-0.001
		l1.396-1.532v-0.001c0.278-0.303,0.668-0.488,1.073-0.504c0.374-0.015,0.729,0.113,1,0.36c0.287,0.26,0.445,0.623,0.452,1.019
		c0.001,0.035-0.002,0.07-0.006,0.104c0.053-0.01,0.104-0.017,0.158-0.018c0.374-0.016,0.729,0.111,1.001,0.356
		c0.322,0.295,0.465,0.71,0.442,1.124c0.053-0.009,0.106-0.018,0.162-0.02c0.375-0.015,0.73,0.114,1,0.359v0.001
		c0.324,0.294,0.467,0.709,0.442,1.123c0.054-0.009,0.107-0.018,0.162-0.02h0.001c0.374-0.015,0.729,0.112,0.999,0.358
		c0.286,0.26,0.446,0.624,0.452,1.02c0,0.035-0.002,0.069-0.005,0.104c0.052-0.009,0.104-0.017,0.159-0.02
		c0.374-0.014,0.729,0.113,1,0.36c0.313,0.285,0.457,0.686,0.444,1.087c0.187-0.05,0.372-0.084,0.555-0.096
		c0.035-0.054,1.598-2.508,1.599-2.509c0.122-0.194,0.367-0.326,0.61-0.336c0.055-0.002,0.109,0.002,0.16,0.013h0.001l1.303,0.279
		h0.001c0.122,0.026,0.226,0.048,0.266,0.057c0.003-0.001,0.003,0,0.001,0h0.001c0.199-0.007,0.237,0.157,0.341,0.488l0.4,1.279
		c0.09,0.275-0.017,0.616-0.248,0.798c0,0-0.776,0.603-1.018,0.789c0.403,0,28.827-0.006,28.827-0.006l0.069,0.07v16.127
		c0,4.152-1.174,7.373-2.909,9.873c0.088,0.08,4.505,4.104,4.505,4.104l0.02,0.029l1.376,4.361l-0.081,0.09L60.576,56.058z
		 M33.048,19.609c-0.213-0.063-0.835-0.221-0.854-0.225c-0.095-0.019-0.22,0.033-0.27,0.112c0,0-1.243,1.952-1.332,2.092
		c0.164,0.049,0.32,0.116,0.463,0.206C31.125,21.719,32.924,19.747,33.048,19.609 M46.616,27.579
		c-0.193-0.042-1.144-0.247-1.144-0.247l-0.045-0.033c0,0-0.488-0.839-0.587-1.009c-0.1,0.17-0.589,1.009-0.589,1.009l-0.046,0.033
		c0,0-0.948,0.205-1.142,0.247c0.132,0.147,0.779,0.872,0.779,0.872l0.018,0.054c0,0-0.099,0.965-0.118,1.162
		c0.181-0.08,1.069-0.471,1.069-0.471h0.057c0,0,0.888,0.391,1.068,0.471c-0.02-0.197-0.117-1.162-0.117-1.162l0.018-0.054
		C45.838,28.451,46.484,27.727,46.616,27.579 M31.663,24.678c-0.159,0.388-0.392,0.771-0.699,1.12
		c0.098,0.089,32.342,29.456,32.693,29.776c-0.123-0.393-0.768-2.436-0.778-2.467C62.852,53.082,31.807,24.809,31.663,24.678
		 M56.862,37.039c-0.194-0.043-1.144-0.246-1.144-0.246l-0.046-0.035c0,0-0.488-0.838-0.587-1.009
		c-0.1,0.171-0.589,1.009-0.589,1.009l-0.046,0.035c0,0-0.948,0.203-1.143,0.246c0.133,0.146,0.781,0.871,0.781,0.871l0.017,0.053
		c0,0-0.098,0.967-0.118,1.164c0.181-0.08,1.068-0.473,1.068-0.473h0.057c0,0,0.889,0.393,1.069,0.473
		c-0.02-0.197-0.118-1.164-0.118-1.164l0.018-0.053C56.082,37.91,56.729,37.185,56.862,37.039 M25.321,28.965
		c0.213,0.062,0.838,0.221,0.854,0.225c0.094,0.02,0.219-0.032,0.269-0.11v-0.001c0,0,1.251-1.964,1.339-2.104
		c-0.161-0.05-0.315-0.119-0.456-0.211C27.256,26.841,25.445,28.829,25.321,28.965 M43.862,49.724c0,0-0.1,0.967-0.119,1.162
		c0.181-0.078,1.068-0.469,1.068-0.469h0.057c0,0,0.889,0.391,1.069,0.471c-0.02-0.197-0.117-1.164-0.117-1.164l0.018-0.053
		c0,0,0.646-0.727,0.778-0.873c-0.193-0.041-1.143-0.246-1.143-0.246l-0.046-0.033c0,0-0.488-0.84-0.588-1.01
		c-0.099,0.17-0.588,1.01-0.588,1.01l-0.046,0.033c0,0-0.948,0.205-1.142,0.246c0.133,0.146,0.779,0.873,0.779,0.873L43.862,49.724z
		 M30.127,25.131c0.632-0.693,0.693-1.619,0.196-2.073c-0.501-0.455-1.417-0.308-2.046,0.385c-0.634,0.692-0.695,1.617-0.195,2.072
		C28.58,25.972,29.495,25.823,30.127,25.131 M38.813,44.951c0,0-0.099,0.967-0.118,1.162c0.181-0.078,1.069-0.471,1.069-0.471h0.057
		c0,0,0.889,0.393,1.069,0.471c-0.02-0.195-0.117-1.162-0.117-1.162l0.018-0.055c0,0,0.646-0.725,0.778-0.871
		c-0.193-0.043-1.143-0.248-1.143-0.248l-0.046-0.033c0,0-0.488-0.838-0.587-1.01l-0.589,1.01l-0.045,0.033
		c0,0-0.95,0.205-1.144,0.248c0.132,0.146,0.78,0.871,0.78,0.871L38.813,44.951z M23.549,16.639
		c-0.133-0.121-0.312-0.186-0.504-0.178c-0.218,0.009-0.432,0.108-0.586,0.278c-0.001,0-0.744,0.816-0.78,0.856
		c-0.012,0.29,0.088,0.575,0.308,0.775c0.211,0.191,0.487,0.268,0.765,0.239c0.038-0.041,0.8-0.876,0.8-0.876
		C23.854,17.4,23.845,16.909,23.549,16.639 M21.945,16.27c0.146-0.161,0.227-0.367,0.224-0.578
		c-0.003-0.205-0.084-0.387-0.225-0.516c-0.135-0.122-0.313-0.185-0.505-0.177h-0.001c-0.219,0.008-0.432,0.108-0.586,0.275
		c-0.001,0.001-0.743,0.817-0.779,0.857c-0.012,0.291,0.089,0.575,0.308,0.775c0.211,0.192,0.488,0.268,0.766,0.24
		C21.185,17.105,21.945,16.271,21.945,16.27L21.945,16.27z M27.269,22.98c0.068-0.088,0.139-0.175,0.215-0.259
		c0.309-0.339,0.656-0.605,1.018-0.805c0.151-0.31,0.104-0.67-0.135-0.89c-0.135-0.12-0.313-0.185-0.505-0.177h-0.002
		c-0.218,0.008-0.432,0.109-0.586,0.278c0,0-0.742,0.816-0.779,0.856c-0.012,0.29,0.089,0.574,0.307,0.774
		C26.935,22.882,27.097,22.95,27.269,22.98 M25.155,18.102c-0.135-0.121-0.313-0.185-0.507-0.178
		c-0.218,0.01-0.431,0.11-0.584,0.279c0,0-0.744,0.816-0.78,0.855c-0.013,0.292,0.088,0.575,0.308,0.775
		c0.211,0.191,0.489,0.267,0.765,0.239c0.038-0.041,0.799-0.877,0.799-0.877C25.459,18.862,25.451,18.374,25.155,18.102
		 M26.982,20.08L26.982,20.08c-0.003-0.203-0.083-0.387-0.224-0.515c-0.134-0.122-0.312-0.186-0.504-0.178h-0.001
		c-0.218,0.009-0.43,0.109-0.583,0.278c0,0-0.745,0.815-0.782,0.855c-0.01,0.291,0.089,0.575,0.31,0.774
		c0.21,0.191,0.487,0.268,0.765,0.239c0.038-0.041,0.797-0.875,0.797-0.875C26.908,20.498,26.986,20.293,26.982,20.08"/>
</g>
</svg>
