<?xml version="1.0" encoding="iso-8859-1"?>
<!-- Generator: Adobe Illustrator 16.0.0, SVG Export Plug-In . SVG Version: 6.00 Build 0)  -->
<!DOCTYPE svg PUBLIC "-//W3C//DTD SVG 1.1//EN" "http://www.w3.org/Graphics/SVG/1.1/DTD/svg11.dtd">
<svg version="1.1" xmlns="http://www.w3.org/2000/svg" xmlns:xlink="http://www.w3.org/1999/xlink" x="0px" y="0px"
	 width="80.019px" height="98.313px" viewBox="0 0 80.019 98.313" style="enable-background:new 0 0 80.019 98.313;"
	 xml:space="preserve">
<g id="Layer_2" style="display:none;">
	<rect y="0.161" style="display:inline;" width="80.019" height="98.153"/>
</g>
<g id="Layer_1">
	<path style="fill:#FFFFFF;" d="M49.923,83.497c-0.801-0.881-1.404-1.662-1.938-2.828l-7.132-15.137l-0.031-0.066h-1.046
		l-5.952,13.508c-1.37,3.162-1.922,3.867-2.551,4.521l-0.185,0.193h19.007L49.923,83.497z M44.758,81.167H34.744
		c0.116-0.471,0.271-0.924,0.457-1.35l4.618-10.213l4.684,10.939C44.599,80.771,44.684,80.978,44.758,81.167"/>
	<path style="fill:#FFFFFF;" d="M32.967,74.517c0-3.125-2.901-6.471-7.22-6.48c0.058-0.883,0.229-1.377,0.708-2.408l0.074-0.16
		h-4.979l0.126,0.178c0.474,0.676,0.64,1.486,0.696,2.393c-4.264,0.063-7.119,3.379-7.119,6.479c0,4.033,3.675,6.545,7.124,6.6
		c-0.054,0.963-0.218,1.324-0.669,2.316l-0.116,0.256h4.759l0.172-0.006l-0.07-0.16c-0.473-1.076-0.647-1.479-0.707-2.402
		C29.223,81.108,32.967,78.587,32.967,74.517 M18.547,74.517c0-2.498,1.016-5.168,3.854-5.238v10.633
		C19.563,79.839,18.547,77.089,18.547,74.517 M25.719,69.274h0.007c2.911,0.014,3.948,2.717,3.948,5.242
		c0,2.602-1.037,5.385-3.948,5.398h-0.007V69.274z"/>
	<path style="fill:#FFFFFF;" d="M56.847,65.128c-4.637,0-7.876,3.928-7.876,9.553c0,5.994,2.871,9.24,7.876,9.24
		c4.974,0,7.826-3.246,7.826-9.24C64.673,70.274,62.623,65.128,56.847,65.128 M56.874,82.204c-2.939,0-4.369-2.338-4.369-7.549
		c0-4.818,1.674-7.813,4.369-7.813c2.75,0,4.265,2.775,4.265,7.813C61.139,79.794,59.705,82.204,56.874,82.204"/>
	<path style="fill:#FFFFFF;" d="M54.009,76.31v-3.076c1.013,0.469,1.319,0.523,2.548,0.523h0.513c1.374,0,1.536-0.072,2.564-0.523
		v3.076c-0.992-0.449-1.12-0.523-2.564-0.523h-0.513C55.508,75.786,54.677,75.841,54.009,76.31"/>
	<path style="fill:#FFFFFF;" d="M48.298,31.222c-0.199-0.043-1.37-0.297-1.37-0.297l-0.045-0.033c0,0-0.604-1.033-0.705-1.21
		c-0.104,0.177-0.706,1.21-0.706,1.21l-0.046,0.033c0,0-1.17,0.254-1.369,0.297c0.135,0.153,0.934,1.047,0.934,1.047l0.018,0.054
		c0,0-0.12,1.19-0.142,1.394c0.187-0.082,1.282-0.564,1.282-0.564h0.057c0,0,1.097,0.482,1.283,0.564
		c-0.021-0.203-0.142-1.394-0.142-1.394l0.017-0.055C47.363,32.268,48.161,31.375,48.298,31.222 M54.258,36.86
		c-0.199-0.043-1.37-0.295-1.37-0.295l-0.046-0.033c0,0-0.603-1.035-0.705-1.212c-0.104,0.177-0.705,1.212-0.705,1.212l-0.046,0.033
		c0,0-1.17,0.252-1.369,0.295c0.136,0.151,0.935,1.046,0.935,1.046l0.019,0.054c0,0-0.122,1.19-0.144,1.393
		c0.188-0.082,1.282-0.563,1.282-0.563h0.057c0,0,1.096,0.481,1.282,0.563c-0.021-0.201-0.142-1.393-0.142-1.393l0.017-0.054
		C53.322,37.906,54.121,37.011,54.258,36.86 M20.929,25.074c-0.001,0.125-0.006,13.588-0.006,13.588
		c0,7.261,3.179,12.837,9.453,16.582c4.15,2.477,8.351,3.32,9.538,3.52c0,0,0.078,0.014,0.097,0.016
		c0.018-0.002,0.095-0.016,0.095-0.016c1.189-0.199,5.388-1.043,9.54-3.52c0.336-0.199,0.662-0.408,0.982-0.619
		c0.001-0.002,0.585-0.402,0.587-0.402c0.34-0.242,0.665-0.492,0.983-0.748c-0.122-0.109-31.146-28.366-31.193-28.408
		C20.979,25.069,20.953,25.072,20.929,25.074 M22.089,28.985l0.116-0.053l27.502,24.79l-0.01,0.111
		c-0.212,0.137-0.425,0.279-0.647,0.414c-3.86,2.303-7.761,3.129-9.027,3.352h-0.023c-1.268-0.223-5.169-1.049-9.028-3.352
		c-5.896-3.52-8.885-8.764-8.885-15.584L22.089,28.985z M24.763,20.942c0.046,0.043,31.126,28.346,31.247,28.458
		c0.341-0.5,0.658-1.012,0.94-1.541h-0.001c0,0,0.129-0.244,0.129-0.246c1.342-2.615,2.02-5.602,2.02-8.951V20.914
		c-0.139,0-34.197,0.007-34.335,0.007C24.763,20.928,24.763,20.934,24.763,20.942 M28.859,22.082l29.006-0.006l0.07,0.069v16.517
		c0,3.011-0.584,5.715-1.744,8.101l-0.109,0.021l-27.27-24.581L28.859,22.082z M63.524,54.44l-4.767-4.342
		c2.015-3.299,3.036-7.141,3.036-11.437V18.215l-32.605,0.007c0.045-0.316,0.022-0.641-0.078-0.945l-0.474-1.514
		c-0.135-0.431-0.442-1.414-1.503-1.496c-0.054-0.011-1.755-0.376-1.755-0.376c-0.133-0.026-0.273-0.041-0.418-0.041l-0.086,0.001
		c-0.725,0.03-1.407,0.417-1.78,1.008l-1.006,1.578c-0.02-0.018-0.037-0.034-0.058-0.053c-0.329-0.301-0.721-0.52-1.145-0.646
		c-0.163-0.409-0.417-0.778-0.752-1.083c-0.331-0.303-0.726-0.521-1.15-0.647c-0.163-0.408-0.415-0.779-0.744-1.08
		c-0.332-0.303-0.726-0.521-1.151-0.646c-0.162-0.41-0.415-0.782-0.745-1.084c-0.33-0.298-0.72-0.517-1.142-0.642
		c-0.162-0.41-0.418-0.778-0.752-1.082c-0.545-0.497-1.256-0.77-2.001-0.77l-0.122,0.002c-0.824,0.033-1.622,0.405-2.19,1.026
		l-1.647,1.808c-0.56,0.616-0.858,1.438-0.819,2.257c0.037,0.8,0.379,1.532,0.962,2.062c0.33,0.301,0.721,0.52,1.143,0.645
		c0.164,0.411,0.418,0.78,0.753,1.085c0.329,0.3,0.721,0.519,1.144,0.645c0.163,0.407,0.418,0.776,0.753,1.082
		c0.332,0.302,0.725,0.521,1.149,0.646c0.163,0.409,0.415,0.78,0.744,1.08s0.72,0.519,1.144,0.645
		c0.163,0.41,0.418,0.781,0.751,1.082c0.019,0.019,0.039,0.035,0.059,0.054l-1.478,1.146c-0.709,0.548-1.017,1.528-0.747,2.38
		c0,0,0.386,1.234,0.517,1.652c0.161,1.09,1.272,1.325,1.651,1.405l1.562,0.336c0.137,0.026,0.277,0.041,0.418,0.041l0.036-0.001
		l-0.004,8.881c0,19.791,21.388,22.787,21.604,22.814l0.181,0.025l0.18-0.025c0.3-0.039,7.051-0.957,12.959-5.332l4.823,4.395
		l8.016,1.709L63.524,54.44z M58.621,59.312l-0.032-0.016c0,0-5.284-4.814-5.371-4.893c-5.866,4.791-13.198,5.752-13.198,5.752
		h-0.018c0,0-20.442-2.629-20.442-21.494c0,0,0.004-11.136,0.004-11.599c-0.178,0.28-0.633,0.994-0.633,0.994
		c-0.146,0.228-0.422,0.378-0.704,0.391c-0.063,0.002-0.128-0.002-0.19-0.016h-0.002l-1.54-0.331
		c-0.393-0.083-0.605-0.118-0.615-0.359c-0.026-0.084-0.561-1.79-0.561-1.791c-0.103-0.325,0.022-0.722,0.29-0.928
		c0,0,2.729-2.118,2.781-2.158c-0.008-0.222,0.013-0.45,0.053-0.682c-0.052,0.01-0.104,0.019-0.16,0.021
		c-0.439,0.017-0.856-0.131-1.173-0.421v0.001v-0.001c-0.32-0.29-0.507-0.695-0.527-1.141c-0.002-0.064,0.002-0.128,0.007-0.19
		c-0.066,0.012-0.134,0.021-0.201,0.023c-0.439,0.019-0.856-0.132-1.172-0.42c-0.382-0.348-0.55-0.841-0.519-1.331
		c-0.066,0.013-0.135,0.022-0.205,0.024c-0.439,0.018-0.855-0.132-1.173-0.42c-0.334-0.304-0.521-0.729-0.528-1.195
		c-0.001-0.046,0.003-0.092,0.008-0.136c-0.066,0.011-0.133,0.021-0.202,0.023c-0.439,0.018-0.856-0.131-1.172-0.42
		c-0.32-0.291-0.508-0.694-0.528-1.138v0.001v-0.001c-0.003-0.065,0.001-0.131,0.006-0.194c-0.064,0.013-0.132,0.021-0.201,0.024
		c-0.439,0.018-0.856-0.132-1.173-0.421c-0.318-0.289-0.507-0.695-0.526-1.136c-0.022-0.473,0.149-0.943,0.473-1.297l1.648-1.81
		c0.325-0.356,0.782-0.573,1.257-0.591c0.438-0.019,0.855,0.131,1.173,0.42c0.336,0.305,0.521,0.73,0.529,1.195
		c0,0.047-0.004,0.093-0.009,0.137c0.066-0.012,0.134-0.021,0.202-0.023c0.438-0.02,0.854,0.131,1.172,0.417
		c0.381,0.35,0.551,0.843,0.518,1.333c0.066-0.012,0.136-0.021,0.206-0.024c0.438-0.018,0.855,0.133,1.172,0.42
		c0.382,0.349,0.55,0.842,0.518,1.333c0.067-0.012,0.136-0.022,0.205-0.025c0.439-0.017,0.855,0.131,1.171,0.42
		c0.335,0.305,0.523,0.73,0.529,1.195c0.001,0.047-0.002,0.092-0.007,0.136c0.065-0.012,0.133-0.021,0.202-0.023
		c0.439-0.018,0.855,0.132,1.172,0.421c0.373,0.338,0.54,0.813,0.52,1.29c0.228-0.063,0.454-0.104,0.676-0.117
		c0.035-0.055,1.891-2.968,1.891-2.968c0.143-0.225,0.428-0.379,0.711-0.391c0.063-0.003,0.127,0.003,0.186,0.015h0.001l1.539,0.33
		h0.001c0.149,0.033,0.273,0.059,0.318,0.066c0,0,0,0,0,0.001c0.224-0.008,0.266,0.169,0.39,0.567l0.475,1.511h-0.001
		c0.104,0.32-0.021,0.717-0.288,0.927v0.001c0,0-0.979,0.759-1.231,0.954c0.404,0,34.072-0.007,34.072-0.007l0.07,0.07v19.042
		c0,4.903-1.39,8.707-3.439,11.66c0.087,0.08,5.326,4.85,5.326,4.85l0.02,0.031l1.625,5.148l-0.082,0.09L58.621,59.312z
		 M26.141,16.286c-0.239-0.074-1.008-0.269-1.029-0.273c-0.115-0.022-0.268,0.041-0.33,0.14c0,0-1.484,2.332-1.58,2.479
		c0.202,0.059,0.395,0.142,0.57,0.254C23.845,18.804,26.017,16.421,26.141,16.286 M24.479,22.253
		c-0.188,0.466-0.467,0.925-0.838,1.345c0.098,0.089,38.298,34.883,38.644,35.196c-0.127-0.4-0.924-2.928-0.935-2.961
		C61.322,55.808,24.623,22.384,24.479,22.253 M42.161,25.693c-0.199-0.043-1.369-0.297-1.369-0.297l-0.046-0.032
		c0,0-0.603-1.034-0.704-1.211c-0.104,0.176-0.707,1.211-0.707,1.211l-0.045,0.032c0,0-1.171,0.254-1.369,0.297
		c0.135,0.151,0.934,1.046,0.934,1.046l0.017,0.054c0,0-0.12,1.19-0.141,1.393c0.187-0.082,1.282-0.563,1.282-0.563h0.057
		c0,0,1.096,0.481,1.282,0.563c-0.021-0.202-0.141-1.393-0.141-1.393l0.017-0.054C41.228,26.739,42.025,25.844,42.161,25.693
		 M22.679,22.82L22.679,22.82c0.749-0.821,0.826-1.925,0.23-2.467c-0.599-0.544-1.688-0.365-2.434,0.455
		c-0.749,0.82-0.827,1.92-0.229,2.466C20.842,23.82,21.93,23.638,22.679,22.82 M27.917,41.507h0.057c0,0,1.095,0.483,1.281,0.565
		c-0.021-0.202-0.141-1.395-0.141-1.395l0.018-0.054c0,0,0.798-0.893,0.934-1.046c-0.2-0.043-1.371-0.296-1.371-0.296l-0.046-0.033
		c0,0-0.601-1.034-0.704-1.21c-0.102,0.176-0.705,1.21-0.705,1.21l-0.046,0.033c0,0-1.171,0.253-1.37,0.296
		c0.137,0.153,0.935,1.046,0.935,1.046l0.018,0.054c0,0-0.121,1.192-0.141,1.395C26.82,41.991,27.917,41.507,27.917,41.507
		 M38.873,51.845c0,0-0.121,1.191-0.143,1.395c0.188-0.082,1.282-0.564,1.282-0.564h0.056c0,0,1.097,0.482,1.283,0.566
		c-0.021-0.203-0.141-1.396-0.141-1.396l0.017-0.053c0,0,0.798-0.893,0.933-1.047c-0.198-0.043-1.368-0.295-1.368-0.295
		l-0.046-0.033c0,0-0.603-1.035-0.705-1.211c-0.104,0.176-0.706,1.211-0.706,1.211L39.29,50.45c0,0-1.169,0.252-1.369,0.295
		c0.136,0.154,0.935,1.047,0.935,1.047L38.873,51.845z M16.973,27.342c0.238,0.074,1.01,0.269,1.028,0.272
		c0.115,0.023,0.268-0.039,0.329-0.138v-0.001c0,0,1.494-2.346,1.588-2.491c-0.198-0.061-0.388-0.146-0.561-0.26
		C19.283,24.806,17.097,27.208,16.973,27.342 M32.911,46.208c0,0-0.12,1.193-0.142,1.396c0.188-0.084,1.283-0.564,1.283-0.564h0.057
		c0,0,1.096,0.48,1.282,0.564c-0.021-0.203-0.141-1.396-0.141-1.396l0.017-0.053c0,0,0.798-0.894,0.934-1.045
		c-0.198-0.043-1.369-0.298-1.369-0.298l-0.046-0.032c0,0-0.603-1.034-0.704-1.21c-0.104,0.176-0.706,1.21-0.706,1.21l-0.046,0.032
		c0,0-1.171,0.255-1.37,0.298c0.136,0.151,0.935,1.045,0.935,1.045L32.911,46.208z M14.916,14.086
		c0.36-0.399,0.352-0.987-0.005-1.312c-0.159-0.146-0.375-0.223-0.604-0.214c-0.261,0.011-0.516,0.132-0.7,0.332
		c0,0-0.888,0.976-0.924,1.016c-0.015,0.348,0.104,0.688,0.367,0.929c0.253,0.23,0.586,0.322,0.917,0.288
		C14.006,15.083,14.916,14.086,14.916,14.086 M13.286,11.666c-0.004-0.245-0.101-0.463-0.27-0.618h-0.001
		c-0.16-0.146-0.375-0.223-0.604-0.213c-0.262,0.01-0.517,0.131-0.7,0.331c0,0-0.889,0.975-0.925,1.015
		c-0.015,0.349,0.104,0.689,0.368,0.931c0.253,0.23,0.586,0.319,0.918,0.285c0.038-0.042,0.946-1.038,0.946-1.038
		C13.194,12.165,13.29,11.918,13.286,11.666 M19.3,20.286c0.082-0.106,0.167-0.21,0.259-0.313c0.364-0.398,0.775-0.714,1.201-0.949
		c0.182-0.369,0.126-0.804-0.161-1.066c-0.161-0.146-0.375-0.223-0.606-0.213c-0.262,0.009-0.517,0.131-0.7,0.332
		c0,0-0.888,0.975-0.925,1.015c-0.015,0.349,0.104,0.688,0.367,0.929C18.896,20.167,19.092,20.25,19.3,20.286 M16.808,14.502
		c-0.161-0.146-0.375-0.222-0.606-0.213c-0.261,0.011-0.516,0.13-0.698,0.332c0,0-0.89,0.975-0.926,1.015
		c-0.015,0.349,0.104,0.689,0.368,0.93c0.253,0.229,0.586,0.319,0.917,0.285c0.038-0.042,0.946-1.039,0.946-1.039
		C17.172,15.414,17.162,14.828,16.808,14.502 M18.703,17.541c0.178-0.194,0.271-0.439,0.267-0.694
		c-0.003-0.244-0.099-0.462-0.269-0.615c-0.16-0.147-0.375-0.224-0.604-0.214h-0.001c-0.261,0.011-0.517,0.131-0.698,0.331v0.001
		c0,0-0.889,0.976-0.926,1.016c-0.014,0.347,0.105,0.688,0.368,0.928c0.253,0.23,0.586,0.32,0.918,0.285
		C17.797,18.536,18.703,17.541,18.703,17.541"/>
</g>
</svg>
