<?xml version="1.0" encoding="iso-8859-1"?>
<!-- Generator: Adobe Illustrator 16.0.0, SVG Export Plug-In . SVG Version: 6.00 Build 0)  -->
<!DOCTYPE svg PUBLIC "-//W3C//DTD SVG 1.1//EN" "http://www.w3.org/Graphics/SVG/1.1/DTD/svg11.dtd">
<svg version="1.1" xmlns="http://www.w3.org/2000/svg" xmlns:xlink="http://www.w3.org/1999/xlink" x="0px" y="0px"
	 width="157.926px" height="29.266px" viewBox="0 0 157.926 29.266" style="enable-background:new 0 0 157.926 29.266;"
	 xml:space="preserve">
<g id="Layer_2" style="display:none;">
	<rect style="display:inline;" width="157.926" height="29.266"/>
</g>
<g id="Layer_1">
	<path style="fill:#FFFFFF;" d="M32.765,19.511h-2.451c0.183-0.407,0.38-0.774,0.38-1.403v-6.949c0-0.629-0.197-1.01-0.38-1.403
		h3.251c1.089,0,2.569,0.131,3.331,1.469c0.419,0.734,0.444,1.835-0.054,2.57c-0.787,1.193-2.229,1.442-3.92,1.442h-0.524v2.897
		C32.397,18.79,32.502,18.946,32.765,19.511 M33.879,14.108c0.629-0.118,1.193-0.419,1.442-1.075
		c0.184-0.472,0.092-1.219-0.249-1.652c-0.644-0.8-1.875-0.708-2.675-0.603v3.343C33.013,14.174,33.616,14.147,33.879,14.108"/>
	<path style="fill:#FFFFFF;" d="M45.481,11.159c0-0.629-0.197-1.009-0.38-1.403h2.452c-0.264,0.564-0.368,0.721-0.368,1.377v7.001
		c0,0.656,0.104,0.813,0.368,1.377h-2.452c0.183-0.407,0.38-0.774,0.38-1.403v-3.239h-4.877v3.265c0,0.656,0.105,0.813,0.367,1.377
		H38.52c0.184-0.407,0.38-0.774,0.38-1.403v-6.949c0-0.629-0.196-1.009-0.38-1.403h2.452c-0.262,0.564-0.367,0.721-0.367,1.377
		v2.544h4.877V11.159z"/>
	<path style="fill:#FFFFFF;" d="M49.663,9.756h2.465c-0.275,0.564-0.38,0.722-0.38,1.377v7.001c0,0.656,0.104,0.813,0.38,1.376
		h-2.465c0.184-0.406,0.38-0.773,0.38-1.402v-6.949C50.043,10.53,49.847,10.148,49.663,9.756"/>
	<path style="fill:#FFFFFF;" d="M58.343,17.989v-6.162c0-0.866-0.197-1.678-0.38-2.072c0.026,0.014,4.077,0,4.077,0
		c1.705,0,3.409,0.158,4.628,2.348c0.787,1.428,0.695,3.762-0.183,5.152c-1.403,2.176-3.291,2.255-5.074,2.255h-3.448
		C58.133,19.222,58.343,18.868,58.343,17.989 M60.913,18.475c1.363,0,2.923,0.013,3.88-1.573c0.695-1.18,0.63-3.527-0.012-4.589
		c-0.984-1.586-2.492-1.678-3.75-1.678h-0.984v7.84H60.913z"/>
	<path style="fill:#FFFFFF;" d="M75.412,17.701L74.81,19.51h-6.201c0.209-0.367,0.38-0.629,0.38-1.402v-6.884
		c0-0.813-0.223-1.193-0.38-1.468h5.965l0.079,1.494c-1.01-0.59-2.426-0.839-3.96-0.59v3.029c0.957,0,2.36,0,3.134-0.315v1.954
		c-0.865-0.472-1.508-0.446-2.557-0.446h-0.577v3.475C72.147,18.488,73.708,18.579,75.412,17.701"/>
	<path style="fill:#FFFFFF;" d="M83.816,17.767l-0.564,1.744h-5.821c0.236-0.341,0.381-0.748,0.381-1.678v-6.412
		c0-0.734-0.196-1.272-0.381-1.665h2.465c-0.274,0.564-0.38,0.721-0.38,1.377v7.185C81.509,18.776,83.016,18.252,83.816,17.767"/>
	<path style="fill:#FFFFFF;" d="M83.166,11.329l0.511-1.574h7.172l-0.498,1.574c-0.879-0.564-1.639-0.603-2.465-0.55v7.354
		c0,0.656,0.104,0.813,0.367,1.377h-2.452c0.184-0.406,0.381-0.773,0.381-1.403v-7.328C85.001,10.7,84.044,10.805,83.166,11.329"/>
	<path style="fill:#FFFFFF;" d="M99.508,18.187c0.38,0.721,0.576,0.983,0.956,1.324h-2.831c0.313-0.747,0.079-1.246-0.421-2.242
		l-0.484-0.983H93.24l-0.604,1.298c-0.446,0.983-0.616,1.245-0.367,1.927h-1.888c0.184-0.236,0.472-0.551,0.748-1.193l4.051-8.85
		L99.508,18.187z M96.242,15.157l-1.298-2.766l-1.206,2.766H96.242z"/>
	<path style="fill:#FFFFFF;" d="M103.006,11.329l0.512-1.574h7.171l-0.498,1.574c-0.879-0.564-1.64-0.603-2.465-0.55v7.354
		c0,0.656,0.105,0.813,0.367,1.377h-2.452c0.184-0.406,0.38-0.773,0.38-1.403v-7.328C104.841,10.7,103.885,10.805,103.006,11.329"/>
	<path style="fill:#FFFFFF;" d="M119.263,11.159c0-0.629-0.197-1.009-0.381-1.403h2.451c-0.261,0.564-0.365,0.721-0.365,1.377v7.001
		c0,0.656,0.104,0.813,0.365,1.377h-2.451c0.184-0.407,0.381-0.774,0.381-1.403v-3.239h-4.877v3.265
		c0,0.656,0.104,0.813,0.366,1.377H112.3c0.185-0.407,0.382-0.774,0.382-1.403v-6.949c0-0.629-0.197-1.009-0.382-1.403h2.452
		c-0.263,0.564-0.366,0.721-0.366,1.377v2.544h4.877V11.159z"/>
	<path style="fill:#FFFFFF;" d="M130.249,17.701l-0.604,1.809h-6.201c0.21-0.367,0.38-0.629,0.38-1.402v-6.884
		c0-0.813-0.223-1.193-0.38-1.468h5.965l0.079,1.494c-1.01-0.59-2.426-0.839-3.959-0.59v3.029c0.956,0,2.359,0,3.133-0.315v1.954
		c-0.865-0.472-1.508-0.446-2.557-0.446h-0.576v3.475C126.984,18.488,128.545,18.579,130.249,17.701"/>
	<path style="fill:#FFFFFF;" d="M131.14,11.329l0.512-1.574h7.172l-0.498,1.574c-0.879-0.564-1.64-0.603-2.467-0.55v7.354
		c0,0.656,0.105,0.813,0.368,1.377h-2.452c0.184-0.406,0.382-0.773,0.382-1.403v-7.328C132.976,10.7,132.018,10.805,131.14,11.329"
		/>
	<path style="fill:#FFFFFF;" d="M147.213,18.187c0.38,0.721,0.577,0.983,0.957,1.324h-2.832c0.315-0.747,0.078-1.246-0.42-2.242
		l-0.484-0.983h-3.488l-0.603,1.298c-0.445,0.983-0.615,1.245-0.366,1.927h-1.889c0.185-0.236,0.473-0.551,0.747-1.193l4.053-8.85
		L147.213,18.187z M143.948,15.157l-1.298-2.766l-1.206,2.766H143.948z"/>
	<path style="fill:#FFFFFF;" d="M10.79,15.15c0,2.693,1.178,4.759,3.506,6.148c1.541,0.92,3.102,1.233,3.542,1.307
		c0,0,0.018,0.003,0.028,0.005c0.013-0.002,0.029-0.005,0.029-0.005c0.44-0.074,2.001-0.387,3.543-1.307
		c0.124-0.075,0.246-0.152,0.364-0.23c0.001-0.001,0.218-0.15,0.219-0.15c0.111-0.079,0.217-0.162,0.323-0.246
		c-0.122-0.111-11.446-10.424-11.552-10.52C10.793,10.334,10.79,15.15,10.79,15.15 M11.138,11.541l0.117-0.052l10.259,9.248
		l-0.009,0.111c-0.079,0.05-0.159,0.103-0.243,0.154h-0.001c-1.446,0.863-2.907,1.173-3.382,1.256h-0.024
		c-0.475-0.083-1.936-0.393-3.382-1.256c-2.212-1.32-3.336-3.291-3.336-5.851L11.138,11.541z M26.621,21.046l-1.785-1.626
		c0.755-1.231,1.138-2.665,1.138-4.27V7.543L13.808,7.545c0.021-0.122,0.014-0.249-0.025-0.366l-0.176-0.564
		c-0.053-0.169-0.161-0.511-0.541-0.545l-0.659-0.14c-0.05-0.011-0.101-0.016-0.152-0.016l-0.031,0.001
		c-0.264,0.01-0.513,0.151-0.65,0.366l-0.387,0.609c-0.013-0.012-0.025-0.024-0.038-0.036c-0.124-0.112-0.27-0.193-0.429-0.239
		c-0.06-0.153-0.154-0.292-0.279-0.406c-0.124-0.112-0.271-0.194-0.431-0.239c-0.06-0.154-0.153-0.293-0.276-0.405
		c-0.124-0.113-0.271-0.194-0.43-0.24C9.242,5.172,9.148,5.033,9.024,4.919C8.901,4.809,8.756,4.728,8.599,4.683
		C8.538,4.528,8.444,4.391,8.319,4.277c-0.2-0.182-0.46-0.283-0.733-0.283L7.542,3.996C7.238,4.007,6.946,4.145,6.737,4.373
		L6.123,5.046C5.918,5.272,5.809,5.573,5.822,5.875C5.837,6.167,5.961,6.436,6.175,6.63c0.124,0.112,0.27,0.193,0.428,0.238
		c0.06,0.154,0.154,0.293,0.279,0.407c0.123,0.112,0.27,0.193,0.428,0.238c0.06,0.154,0.154,0.292,0.279,0.405
		C7.713,8.031,7.86,8.113,8.02,8.159c0.06,0.153,0.153,0.293,0.276,0.404c0.123,0.113,0.269,0.194,0.428,0.24
		c0.06,0.154,0.154,0.292,0.278,0.405C9.015,9.22,9.028,9.23,9.043,9.243L8.472,9.685c-0.258,0.199-0.369,0.556-0.272,0.867
		c0,0,0.145,0.46,0.193,0.616c0.055,0.395,0.448,0.478,0.602,0.511l0.582,0.125c0.051,0.01,0.102,0.015,0.152,0.015
		c0,0,0.032-0.001,0.033-0.001L9.76,15.15c0,7.365,7.962,8.481,8.042,8.491l0.064,0.009l0.065-0.009
		c0.112-0.014,2.635-0.358,4.838-1.994l1.807,1.645l2.953,0.629L26.621,21.046z M24.801,22.896l-0.033-0.016
		c0,0-1.892-1.724-1.976-1.8c-2.186,1.767-4.916,2.131-4.916,2.131h-0.019c0,0-7.663-0.975-7.663-8.061c0,0,0.001-3.746,0.001-4.176
		c-0.077,0.121-0.155,0.244-0.155,0.244c-0.063,0.098-0.179,0.161-0.297,0.165v0.001H9.742c0,0,0-0.001,0.001-0.001
		c-0.028,0.002-0.056-0.001-0.082-0.006H9.659l-0.573-0.123C8.955,11.227,8.819,11.21,8.82,11.07l0.003,0.02
		c-0.006-0.021-0.21-0.669-0.21-0.669c-0.043-0.138,0.009-0.305,0.124-0.394c0,0,0.972-0.753,1.021-0.792
		c-0.001-0.06,0.003-0.121,0.012-0.182c-0.003,0-0.005,0.001-0.007,0.001C9.588,9.062,9.422,9.002,9.295,8.887
		C9.167,8.771,9.092,8.607,9.084,8.431C9.083,8.422,9.085,8.416,9.085,8.406c-0.01,0.001-0.019,0.004-0.028,0.004
		C8.882,8.417,8.715,8.357,8.589,8.243C8.448,8.114,8.384,7.939,8.383,7.762C8.371,7.763,8.361,7.766,8.35,7.767
		C8.175,7.773,8.008,7.713,7.881,7.598C7.746,7.477,7.672,7.307,7.67,7.121c0-0.001,0-0.001,0-0.002
		c-0.011,0-0.019,0.003-0.027,0.003C7.468,7.128,7.301,7.069,7.174,6.955C7.046,6.837,6.971,6.675,6.963,6.499
		c0-0.009,0.001-0.016,0.002-0.025c-0.011,0.001-0.02,0.003-0.029,0.004H6.935c0.001,0,0.001,0,0.001,0
		C6.761,6.484,6.594,6.424,6.467,6.31C6.339,6.192,6.265,6.03,6.256,5.854c-0.009-0.187,0.06-0.375,0.188-0.515l0.614-0.675h0.001
		c0.129-0.141,0.311-0.227,0.5-0.235c0.175-0.007,0.341,0.053,0.468,0.169c0.135,0.122,0.209,0.292,0.212,0.477
		c0,0.001,0,0.002,0,0.002c0.009,0,0.018-0.003,0.027-0.003c0.174-0.007,0.341,0.052,0.468,0.167h0.001
		C8.873,5.37,8.938,5.545,8.939,5.723C8.95,5.722,8.961,5.718,8.972,5.718C9.147,5.711,9.313,5.771,9.44,5.887
		c0.14,0.128,0.204,0.303,0.206,0.481C9.657,6.365,9.668,6.363,9.68,6.362c0.174-0.006,0.341,0.053,0.468,0.168
		c0.134,0.122,0.209,0.293,0.211,0.478v0.002c0.01-0.001,0.019-0.003,0.027-0.004h0.001C10.562,7,10.729,7.06,10.854,7.175
		c0.134,0.122,0.199,0.289,0.205,0.459c0.063-0.015,0.124-0.025,0.186-0.03c0.034-0.053,0.694-1.09,0.694-1.09h-0.001
		c0.063-0.097,0.182-0.161,0.301-0.166c0.027-0.001,0.055,0.001,0.08,0.007l0.574,0.123h0.001c0.046,0.01,0.117,0.025,0.122,0.026
		l-0.009-0.001c0.12-0.001,0.145,0.115,0.184,0.241l0.177,0.564l-0.001-0.001c0.046,0.138-0.008,0.305-0.122,0.395
		c0,0-0.205,0.158-0.357,0.277c0.396,0,12.582-0.002,12.582-0.002l0.069,0.07v7.103c0,1.821-0.513,3.237-1.271,4.341
		c0.084,0.077,1.96,1.785,1.96,1.785l0.021,0.031l0.605,1.92l-0.081,0.09L24.801,22.896z M23.826,19.088
		c0.115-0.172,0.225-0.347,0.32-0.528c0,0,0.048-0.091,0.048-0.092c0.497-0.968,0.748-2.075,0.748-3.318V8.573
		c-0.137,0.001-12.406,0.003-12.659,0.003C12.446,8.726,23.706,18.979,23.826,19.088 M24.527,8.919l0.07,0.07v6.161
		c0,1.129-0.219,2.144-0.656,3.041l-0.108,0.021L13.66,9.043l0.048-0.122L24.527,8.919z M19.774,12.791c0,0-0.03,0.296-0.045,0.445
		c0.137-0.06,0.409-0.181,0.409-0.181h0.057c0,0,0.273,0.121,0.409,0.181c-0.015-0.149-0.045-0.445-0.045-0.445l0.018-0.054
		c0,0,0.198-0.223,0.299-0.334c-0.146-0.032-0.438-0.095-0.438-0.095l-0.046-0.033c0,0-0.149-0.257-0.225-0.386
		c-0.075,0.129-0.226,0.386-0.226,0.386l-0.045,0.033c0,0-0.292,0.063-0.438,0.095c0.1,0.111,0.299,0.334,0.299,0.334L19.774,12.791
		z M17.485,10.728c0,0-0.03,0.296-0.045,0.445c0.137-0.061,0.41-0.181,0.41-0.181h0.056c0,0,0.272,0.12,0.409,0.181
		c-0.015-0.149-0.045-0.445-0.045-0.445l0.018-0.054c0,0,0.198-0.222,0.299-0.334c-0.146-0.031-0.438-0.094-0.438-0.094
		l-0.046-0.033c0,0-0.149-0.258-0.224-0.387c-0.076,0.129-0.227,0.387-0.227,0.387l-0.045,0.033c0,0-0.291,0.063-0.437,0.094
		c0.099,0.112,0.298,0.334,0.298,0.334L17.485,10.728z M12.089,9.104c-0.066,0.147-0.155,0.29-0.269,0.424
		c0.098,0.088,13.902,12.661,14.265,12.991c-0.097-0.304-0.287-0.91-0.297-0.938C25.761,21.556,12.231,9.234,12.089,9.104
		 M12.612,6.828c-0.111-0.029-0.303-0.08-0.312-0.083c-0.026-0.004-0.064,0.012-0.077,0.033c0,0-0.479,0.751-0.561,0.879
		c0.048,0.017,0.093,0.038,0.137,0.063C11.861,7.65,12.493,6.958,12.612,6.828 M21.997,14.893c0,0-0.029,0.297-0.045,0.446
		c0.138-0.061,0.41-0.181,0.41-0.181h0.057c0,0,0.272,0.12,0.408,0.181c-0.015-0.149-0.045-0.446-0.045-0.446l0.019-0.053
		c0,0,0.198-0.222,0.298-0.334c-0.146-0.032-0.438-0.095-0.438-0.095l-0.045-0.033c0,0-0.149-0.257-0.225-0.386
		c-0.075,0.129-0.227,0.386-0.227,0.386l-0.045,0.033c0,0-0.292,0.063-0.438,0.095c0.1,0.112,0.299,0.334,0.299,0.334L21.997,14.893
		z M13.006,6.502h-0.003H13.006 M13.338,16.172h0.057c0,0,0.272,0.12,0.409,0.18c-0.016-0.148-0.045-0.445-0.045-0.445l0.018-0.053
		c0,0,0.198-0.223,0.297-0.335c-0.145-0.031-0.437-0.095-0.437-0.095l-0.046-0.033c0,0-0.149-0.257-0.225-0.386
		c-0.076,0.129-0.226,0.386-0.226,0.386l-0.045,0.033c0,0-0.292,0.064-0.438,0.095c0.101,0.112,0.299,0.334,0.299,0.334l0.018,0.054
		c0,0-0.03,0.296-0.045,0.445C13.065,16.292,13.338,16.172,13.338,16.172 M11.369,9.211c0.271-0.298,0.285-0.679,0.09-0.858
		c-0.198-0.18-0.576-0.13-0.848,0.167c-0.271,0.297-0.285,0.678-0.088,0.857C10.721,9.558,11.099,9.507,11.369,9.211 M9.354,10.904
		c0.111,0.028,0.303,0.08,0.311,0.082c0.026,0.006,0.064-0.011,0.077-0.031v-0.001c0,0,0.483-0.758,0.563-0.884
		c-0.046-0.017-0.09-0.039-0.133-0.064C10.109,10.076,9.474,10.773,9.354,10.904 M17.485,20.072c0,0-0.03,0.297-0.045,0.446
		c0.137-0.061,0.409-0.181,0.409-0.181h0.056c0,0,0.273,0.12,0.41,0.181c-0.015-0.149-0.045-0.446-0.045-0.446l0.018-0.053
		c0,0,0.198-0.222,0.299-0.334c-0.146-0.032-0.438-0.095-0.438-0.095l-0.045-0.033c0,0-0.15-0.257-0.226-0.386
		c-0.075,0.129-0.226,0.386-0.226,0.386l-0.045,0.033c0,0-0.291,0.063-0.437,0.095c0.099,0.112,0.298,0.334,0.298,0.334
		L17.485,20.072z M15.263,17.971c0,0-0.03,0.296-0.045,0.445c0.136-0.06,0.409-0.18,0.409-0.18h0.057c0,0,0.271,0.12,0.409,0.18
		c-0.016-0.149-0.045-0.445-0.045-0.445l0.017-0.054c0,0,0.199-0.223,0.298-0.334c-0.146-0.031-0.437-0.094-0.437-0.094
		l-0.046-0.034c0,0-0.149-0.257-0.225-0.386c-0.076,0.129-0.226,0.386-0.226,0.386l-0.045,0.034c0,0-0.292,0.063-0.438,0.094
		c0.101,0.111,0.298,0.334,0.298,0.334L15.263,17.971z M9.975,7.014L9.975,7.014C9.974,6.935,9.941,6.864,9.889,6.815
		c-0.051-0.047-0.12-0.071-0.194-0.068H9.693C9.609,6.75,9.525,6.791,9.465,6.856c0,0-0.301,0.328-0.334,0.366
		C9.13,7.335,9.17,7.443,9.254,7.52c0.08,0.073,0.185,0.103,0.293,0.096c0.034-0.039,0.34-0.373,0.34-0.373
		C9.944,7.178,9.976,7.098,9.975,7.014 M7.766,5.309c0.059-0.064,0.09-0.145,0.088-0.227C7.853,5,7.821,4.932,7.768,4.881
		c-0.051-0.046-0.12-0.071-0.194-0.068c-0.086,0.004-0.17,0.044-0.23,0.11c0,0-0.299,0.328-0.333,0.365
		C7.009,5.401,7.049,5.511,7.133,5.586C7.213,5.66,7.317,5.69,7.426,5.683C7.461,5.644,7.766,5.309,7.766,5.309z M8.475,5.526
		C8.425,5.48,8.355,5.456,8.28,5.458C8.195,5.461,8.111,5.5,8.05,5.567c0,0-0.299,0.328-0.333,0.366
		C7.716,6.046,7.756,6.154,7.84,6.231c0.08,0.073,0.185,0.103,0.293,0.096c0.035-0.039,0.34-0.373,0.34-0.374
		C8.595,5.82,8.588,5.628,8.475,5.526 M9.96,8.165c0.047,0.043,0.104,0.067,0.166,0.081c0.025-0.032,0.052-0.065,0.079-0.095
		c0.135-0.148,0.286-0.264,0.443-0.353c0.056-0.121,0.036-0.257-0.053-0.338c-0.05-0.046-0.119-0.071-0.194-0.068
		c-0.086,0.003-0.17,0.043-0.23,0.11c0,0-0.3,0.328-0.332,0.365C9.837,7.979,9.877,8.087,9.96,8.165 M9.18,6.598
		c0.122-0.133,0.115-0.324,0.003-0.426C9.131,6.125,9.063,6.1,8.987,6.103c-0.085,0.004-0.17,0.043-0.229,0.11
		c0,0-0.3,0.328-0.334,0.366C8.423,6.691,8.463,6.799,8.547,6.875c0.08,0.073,0.186,0.103,0.293,0.096
		C8.874,6.933,9.18,6.598,9.18,6.598"/>
</g>
</svg>
