<?xml version="1.0" encoding="iso-8859-1"?>
<!-- Generator: Adobe Illustrator 16.0.0, SVG Export Plug-In . SVG Version: 6.00 Build 0)  -->
<!DOCTYPE svg PUBLIC "-//W3C//DTD SVG 1.1//EN" "http://www.w3.org/Graphics/SVG/1.1/DTD/svg11.dtd">
<svg version="1.1" id="Layer_1" xmlns="http://www.w3.org/2000/svg" xmlns:xlink="http://www.w3.org/1999/xlink" x="0px" y="0px"
	 width="147.584px" height="187.035px" viewBox="0 0 147.584 187.035" style="enable-background:new 0 0 147.584 187.035;"
	 xml:space="preserve">
<path d="M93.75,158.248c-1.543-1.7-2.707-3.207-3.734-5.452l-13.744-29.172l-0.061-0.126h-2.016l-11.471,26.029
	c-2.64,6.095-3.703,7.457-4.916,8.717l-0.357,0.371h36.631L93.75,158.248z M83.795,153.755H64.498
	c0.224-0.904,0.521-1.779,0.88-2.602l8.901-19.683l9.023,21.087C83.49,152.993,83.652,153.389,83.795,153.755"/>
<path d="M61.072,140.94c0-6.023-5.59-12.471-13.915-12.49c0.112-1.704,0.442-2.655,1.365-4.64l0.145-0.313H39.07l0.243,0.347
	c0.914,1.301,1.233,2.862,1.342,4.61c-8.217,0.119-13.72,6.509-13.72,12.485c0,7.772,7.083,12.613,13.73,12.719
	c-0.104,1.852-0.421,2.551-1.29,4.465l-0.223,0.491h9.171l0.331-0.012l-0.136-0.308c-0.91-2.077-1.248-2.851-1.363-4.633
	C53.856,153.646,61.072,148.785,61.072,140.94 M33.282,140.94c0-4.815,1.957-9.962,7.428-10.099v20.494
	C35.239,151.197,33.282,145.898,33.282,140.94 M47.103,130.836h0.015c5.608,0.026,7.607,5.236,7.607,10.104
	c0,5.012-1.999,10.376-7.607,10.401h-0.015V130.836z"/>
<path d="M107.096,122.846c-8.938,0-15.18,7.569-15.18,18.41c0,11.554,5.531,17.807,15.18,17.807c9.584,0,15.08-6.253,15.08-17.807
	C122.176,132.764,118.227,122.846,107.096,122.846 M107.146,155.755c-5.666,0-8.42-4.508-8.42-14.549
	c0-9.287,3.227-15.056,8.42-15.056c5.299,0,8.219,5.346,8.219,15.056C115.365,151.108,112.602,155.755,107.146,155.755"/>
<path d="M101.625,144.396v-5.931c1.949,0.903,2.541,1.009,4.908,1.009h0.99c2.646,0,2.959-0.14,4.943-1.009v5.931
	c-1.914-0.869-2.158-1.011-4.943-1.011h-0.99C104.516,143.386,102.912,143.491,101.625,144.396"/>
<path d="M120.736,113.68l-3.133-9.924l-10.35-9.428c3.973-5.679,6.668-13.014,6.668-22.489V35.141l-66.059,0.013l2.685-2.08
	c0.474-0.372,0.694-1.078,0.51-1.64l-0.912-2.913c-0.259-0.827-0.316-1.011-0.619-0.999H49.51c-0.079-0.017-0.332-0.066-0.631-0.133
	l-2.965-0.637c-0.103-0.02-0.214-0.029-0.327-0.024c-0.505,0.02-1.012,0.298-1.261,0.689l-3.677,5.773
	c-0.497,0.022-1.011,0.12-1.524,0.272c0.089-0.943-0.22-1.896-0.951-2.56c-0.582-0.531-1.35-0.808-2.162-0.777
	c-0.187,0.008-0.37,0.041-0.551,0.08c0.016-0.142,0.037-0.281,0.034-0.427c-0.011-0.86-0.358-1.645-0.975-2.207
	c-0.582-0.53-1.35-0.805-2.161-0.772c-0.184,0.008-0.366,0.038-0.546,0.076c0.113-0.966-0.196-1.949-0.944-2.632
	c-0.583-0.529-1.352-0.807-2.162-0.774c-0.185,0.007-0.366,0.037-0.547,0.076c0.113-0.966-0.196-1.951-0.943-2.633
	c-0.585-0.529-1.352-0.805-2.163-0.77c-0.184,0.006-0.367,0.037-0.549,0.076c0.016-0.141,0.038-0.283,0.035-0.428
	c-0.013-0.859-0.357-1.644-0.975-2.205c-0.585-0.532-1.353-0.809-2.164-0.775c-0.877,0.034-1.724,0.435-2.329,1.096l-3.175,3.487
	c-0.599,0.656-0.918,1.528-0.878,2.4c0.039,0.816,0.386,1.564,0.973,2.098c0.582,0.532,1.351,0.809,2.165,0.775
	c0.184-0.007,0.365-0.038,0.544-0.076c-0.021,0.177-0.038,0.354-0.029,0.532c0.037,0.82,0.383,1.564,0.973,2.102
	c0.583,0.53,1.351,0.805,2.163,0.772c0.185-0.008,0.37-0.038,0.55-0.078c-0.018,0.143-0.038,0.284-0.035,0.429
	c0.011,0.861,0.359,1.644,0.975,2.205c0.584,0.529,1.35,0.807,2.165,0.772c0.184-0.006,0.365-0.038,0.545-0.076
	c-0.114,0.968,0.196,1.95,0.943,2.631c0.582,0.53,1.351,0.808,2.163,0.774c0.184-0.006,0.366-0.039,0.546-0.077
	c-0.022,0.176-0.039,0.352-0.031,0.528c0.038,0.822,0.382,1.569,0.973,2.104c0.582,0.532,1.351,0.808,2.164,0.774
	c0.161-0.006,0.319-0.039,0.475-0.068c-0.106,0.526-0.154,1.048-0.13,1.546l-5.41,4.196c-0.472,0.366-0.694,1.07-0.513,1.643
	c0,0,1.047,3.349,1.081,3.459c0,0.363,0.249,0.419,1.085,0.596l2.969,0.638c0.11,0.022,0.223,0.03,0.335,0.025
	c0.502-0.021,0.993-0.291,1.249-0.689l1.469-2.306l-0.009,22.815c0,36.203,39.279,41.288,39.279,41.288s14.145-1.837,25.459-11.129
	l10.438,9.508L120.736,113.68z M117.844,111.052l-0.025-0.007L42.912,42.821c0.797-0.877,1.382-1.85,1.751-2.831l71.226,64.866
	L117.844,111.052z M111.566,71.839c0,6.472-1.311,12.249-3.906,17.312l-0.248,0.475c-0.572,1.072-1.215,2.108-1.906,3.113
	l-60.381-54.99c0.003-0.079,0.001-0.156,0.003-0.235l66.439-0.014V71.839z M45.182,28.385c0.151-0.236,0.503-0.384,0.778-0.327
	c0,0,2.06,0.495,2.183,0.608l-4.768,5.232c-0.403-0.274-0.853-0.464-1.333-0.582L45.182,28.385z M36.464,42.281
	c-1.228-1.12-1.036-3.332,0.434-4.939c1.464-1.61,3.649-2.007,4.881-0.887c1.224,1.117,1.035,3.331-0.435,4.942
	C39.875,43.004,37.691,43.406,36.464,42.281 M20.865,23.28c-0.69,0.083-1.39-0.1-1.923-0.585c-0.551-0.504-0.796-1.221-0.754-1.942
	l1.818-1.996c0.378-0.411,0.903-0.66,1.446-0.683c0.474-0.019,0.924,0.139,1.261,0.447c0.355,0.324,0.556,0.781,0.564,1.288
	c0.007,0.521-0.189,1.029-0.55,1.427L20.865,23.28z M24.516,26.611c-0.689,0.083-1.389-0.103-1.92-0.587
	c-0.552-0.503-0.797-1.22-0.754-1.94l1.818-1.997c0.378-0.414,0.904-0.662,1.444-0.684c0.476-0.02,0.926,0.14,1.262,0.446
	c0.748,0.682,0.755,1.901,0.016,2.718L24.516,26.611z M28.169,29.938c-0.687,0.085-1.388-0.099-1.919-0.583
	c-0.554-0.503-0.799-1.219-0.756-1.94l1.821-1.997c0.375-0.415,0.901-0.662,1.441-0.685c0.478-0.019,0.926,0.141,1.263,0.447
	c0.748,0.684,0.753,1.898,0.012,2.715L28.169,29.938z M31.824,33.265c-0.689,0.085-1.392-0.099-1.922-0.583
	c-0.551-0.501-0.796-1.22-0.755-1.938l1.821-1.997c0.375-0.414,0.899-0.663,1.441-0.683c0.476-0.021,0.923,0.138,1.26,0.446
	c0.355,0.322,0.555,0.779,0.562,1.284c0.009,0.527-0.185,1.032-0.548,1.431L31.824,33.265z M32.799,34.072l1.817-1.997
	c0.377-0.413,0.903-0.664,1.446-0.684c0.478-0.021,0.926,0.141,1.264,0.444c0.614,0.563,0.719,1.485,0.326,2.249
	c-0.824,0.45-1.619,1.058-2.322,1.829c-0.194,0.213-0.376,0.434-0.546,0.658c-0.449-0.065-0.88-0.239-1.233-0.56
	C33.001,35.509,32.757,34.792,32.799,34.072 M32.979,50.356c-0.149,0.238-0.5,0.382-0.777,0.325c0,0-2.061-0.493-2.181-0.608
	l4.8-5.268c0.396,0.278,0.84,0.475,1.312,0.596L32.979,50.356z M96.316,101.937l-1.135,0.775c-0.617,0.41-1.248,0.812-1.898,1.198
	c-8.021,4.787-16.135,6.415-18.432,6.8l-0.205,0.034l-0.209-0.034c-2.295-0.385-10.409-2.013-18.429-6.8
	c-12.131-7.238-18.283-18.029-18.283-32.071l0.01-26.309c0.11-0.01,0.219-0.02,0.329-0.035l60.279,54.899
	C97.688,100.921,97.02,101.437,96.316,101.937"/>
<path d="M105.709,87.393c2.225-4.579,3.35-9.77,3.35-15.555v-31.83L53.157,40.02L105.709,87.393z M96.539,67.665l1.475-2.535
	l1.479,2.535l2.867,0.618l-1.957,2.188l0.299,2.917l-2.688-1.182l-2.68,1.182l0.297-2.917l-1.957-2.188L96.539,67.665z
	 M85.055,56.798l1.477-2.53l1.475,2.53l2.867,0.622l-1.955,2.188l0.297,2.918l-2.684-1.184l-2.684,1.184l0.295-2.918l-1.955-2.188
	L85.055,56.798z M74.705,43.609l1.473,2.532l2.869,0.619l-1.953,2.189l0.293,2.915l-2.682-1.18l-2.684,1.18l0.295-2.915
	l-1.953-2.189l2.863-0.619L74.705,43.609z"/>
<path d="M57.293,101.758c7.42,4.429,14.918,6.018,17.354,6.443c2.432-0.426,9.932-2.015,17.35-6.443
	c0.428-0.257,0.836-0.526,1.246-0.792l-53-47.777L40.235,71.84C40.235,84.936,45.974,95.002,57.293,101.758 M73.229,94.428
	l1.477-2.534l1.475,2.534l2.865,0.616l-1.951,2.189l0.295,2.918l-2.684-1.183l-2.684,1.183l0.299-2.918l-1.957-2.189L73.229,94.428z
	 M61.743,83.563l1.477-2.532l1.474,2.532l2.867,0.62l-1.954,2.188l0.295,2.919l-2.683-1.183l-2.685,1.183l0.297-2.919l-1.955-2.188
	L61.743,83.563z M47.05,73.523l2.867-0.619l1.476-2.532l1.473,2.532l2.868,0.619l-1.953,2.189l0.294,2.918l-2.682-1.184
	l-2.683,1.184l0.295-2.918L47.05,73.523z"/>
</svg>
