<?xml version="1.0" encoding="iso-8859-1"?>
<!-- Generator: Adobe Illustrator 16.0.0, SVG Export Plug-In . SVG Version: 6.00 Build 0)  -->
<!DOCTYPE svg PUBLIC "-//W3C//DTD SVG 1.1//EN" "http://www.w3.org/Graphics/SVG/1.1/DTD/svg11.dtd">
<svg version="1.1" xmlns="http://www.w3.org/2000/svg" xmlns:xlink="http://www.w3.org/1999/xlink" x="0px" y="0px"
	 width="99.813px" height="71.668px" viewBox="0 0 99.813 71.668" style="enable-background:new 0 0 99.813 71.668;"
	 xml:space="preserve">
<g id="Layer_2" style="display:none;">
	<rect style="display:inline;" width="99.813" height="71.668"/>
</g>
<g id="Layer_1">
	<path style="fill:#FFFFFF;" d="M8.887,64.567H7.102c0.133-0.296,0.275-0.563,0.275-1.021v-5.059c0-0.459-0.143-0.736-0.275-1.021
		h2.367c0.792,0,1.871,0.095,2.424,1.068c0.306,0.535,0.325,1.336-0.038,1.871c-0.572,0.869-1.622,1.049-2.854,1.049H8.618v2.11
		C8.618,64.042,8.695,64.157,8.887,64.567 M9.697,60.634c0.458-0.087,0.869-0.306,1.05-0.782c0.135-0.344,0.067-0.889-0.181-1.203
		c-0.468-0.583-1.365-0.516-1.948-0.439v2.435C9.067,60.682,9.507,60.663,9.697,60.634"/>
	<path style="fill:#FFFFFF;" d="M17.954,58.487c0-0.459-0.144-0.736-0.277-1.021h1.785c-0.191,0.41-0.268,0.525-0.268,1.002v5.097
		c0,0.478,0.076,0.593,0.268,1.003h-1.785c0.134-0.296,0.277-0.563,0.277-1.021v-2.358h-3.552v2.377
		c0,0.478,0.076,0.593,0.268,1.003h-1.785c0.134-0.296,0.277-0.563,0.277-1.021v-5.059c0-0.459-0.144-0.736-0.277-1.021h1.785
		c-0.191,0.41-0.268,0.525-0.268,1.002v1.852h3.552V58.487z"/>
	<path style="fill:#FFFFFF;" d="M20.997,57.465h1.795c-0.2,0.41-0.277,0.525-0.277,1.002v5.097c0,0.478,0.077,0.593,0.277,1.003
		h-1.795c0.134-0.295,0.277-0.563,0.277-1.021v-5.059C21.274,58.028,21.131,57.75,20.997,57.465"/>
	<path style="fill:#FFFFFF;" d="M27.239,63.459v-4.486c0-0.629-0.144-1.222-0.277-1.508c0.02,0.01,2.969,0,2.969,0
		c1.241,0,2.482,0.114,3.369,1.709c0.573,1.039,0.506,2.739-0.133,3.752c-1.021,1.584-2.396,1.641-3.695,1.641h-2.51
		C27.086,64.356,27.239,64.098,27.239,63.459 M29.11,63.813c0.992,0,2.129,0.01,2.826-1.146c0.505-0.86,0.457-2.567-0.011-3.341
		c-0.716-1.155-1.813-1.223-2.729-1.223H28.48v5.709H29.11z"/>
	<path style="fill:#FFFFFF;" d="M40.239,63.249L39.8,64.567h-4.515c0.152-0.268,0.275-0.459,0.275-1.021v-5.013
		c0-0.592-0.161-0.869-0.275-1.068h4.343l0.057,1.088c-0.734-0.43-1.766-0.611-2.882-0.43v2.205c0.696,0,1.718,0,2.281-0.229v1.422
		c-0.63-0.344-1.098-0.324-1.861-0.324h-0.42v2.529C37.862,63.823,38.998,63.889,40.239,63.249"/>
	<path style="fill:#FFFFFF;" d="M46.165,63.297l-0.41,1.27h-4.238c0.172-0.249,0.277-0.545,0.277-1.223v-4.668
		c0-0.533-0.144-0.926-0.277-1.211h1.795c-0.2,0.41-0.277,0.525-0.277,1.002V63.7C44.486,64.032,45.583,63.65,46.165,63.297"/>
	<path style="fill:#FFFFFF;" d="M45.691,58.61l0.373-1.145h5.22l-0.361,1.145c-0.641-0.41-1.193-0.438-1.795-0.4v5.355
		c0,0.477,0.076,0.592,0.268,1.002H47.61c0.135-0.295,0.277-0.563,0.277-1.021v-5.336C47.027,58.153,46.332,58.229,45.691,58.61"/>
	<path style="fill:#FFFFFF;" d="M57.588,63.602c0.277,0.525,0.421,0.717,0.697,0.965h-2.062c0.228-0.545,0.057-0.906-0.306-1.633
		l-0.354-0.715h-2.54l-0.438,0.944c-0.325,0.716-0.449,0.907-0.269,1.403h-1.374c0.134-0.172,0.344-0.401,0.544-0.869l2.95-6.442
		L57.588,63.602z M55.212,61.397l-0.945-2.013l-0.879,2.013H55.212z"/>
	<path style="fill:#FFFFFF;" d="M60.211,58.61l0.372-1.145h5.223l-0.363,1.145c-0.641-0.41-1.193-0.438-1.795-0.4v5.355
		c0,0.477,0.077,0.592,0.268,1.002H62.13c0.135-0.295,0.277-0.563,0.277-1.021v-5.336C61.547,58.153,60.852,58.229,60.211,58.61"/>
	<path style="fill:#FFFFFF;" d="M72.047,58.487c0-0.459-0.144-0.736-0.277-1.021h1.785c-0.19,0.41-0.267,0.525-0.267,1.002v5.097
		c0,0.478,0.076,0.593,0.267,1.003H71.77c0.134-0.296,0.277-0.563,0.277-1.021v-2.358h-3.551v2.377c0,0.478,0.076,0.593,0.267,1.003
		h-1.785c0.135-0.296,0.277-0.563,0.277-1.021v-5.059c0-0.459-0.143-0.736-0.277-1.021h1.785c-0.19,0.41-0.267,0.525-0.267,1.002
		v1.852h3.551V58.487z"/>
	<path style="fill:#FFFFFF;" d="M80.045,63.249l-0.439,1.318H75.09c0.154-0.268,0.278-0.459,0.278-1.021v-5.013
		c0-0.592-0.163-0.869-0.278-1.068h4.343l0.059,1.088c-0.735-0.43-1.768-0.611-2.883-0.43v2.205c0.696,0,1.718,0,2.28-0.229v1.422
		c-0.629-0.344-1.097-0.324-1.859-0.324h-0.421v2.529C77.667,63.823,78.803,63.889,80.045,63.249"/>
	<path style="fill:#FFFFFF;" d="M80.312,58.61l0.373-1.145h5.221l-0.363,1.145c-0.64-0.41-1.193-0.438-1.795-0.4v5.355
		c0,0.477,0.077,0.592,0.268,1.002H82.23c0.133-0.295,0.275-0.563,0.275-1.021v-5.336C81.647,58.153,80.951,58.229,80.312,58.61"/>
	<path style="fill:#FFFFFF;" d="M92.013,63.602c0.278,0.525,0.42,0.717,0.698,0.965h-2.063c0.23-0.545,0.059-0.906-0.305-1.633
		l-0.354-0.715H87.45l-0.438,0.944c-0.325,0.716-0.449,0.907-0.267,1.403H85.37c0.133-0.172,0.343-0.401,0.544-0.869l2.948-6.442
		L92.013,63.602z M89.637,61.397l-0.946-2.013l-0.878,2.013H89.637z"/>
	<path style="fill:#FFFFFF;" d="M38.08,13.529c-0.214-0.063-0.834-0.221-0.855-0.226c-0.093-0.019-0.218,0.034-0.268,0.112v0.001
		c0,0-1.243,1.951-1.332,2.092c0.163,0.048,0.319,0.115,0.463,0.206C36.157,15.638,37.955,13.665,38.08,13.529 M27.201,9.611
		c-0.004-0.205-0.085-0.387-0.227-0.516c-0.133-0.122-0.313-0.186-0.504-0.178c-0.219,0.008-0.433,0.11-0.587,0.277
		c0,0.001-0.743,0.817-0.779,0.857c-0.011,0.29,0.089,0.575,0.309,0.775c0.211,0.193,0.488,0.268,0.766,0.24
		c0.037-0.041,0.798-0.877,0.798-0.877C27.124,10.028,27.203,9.822,27.201,9.611 M36.943,17.463
		c0.046,0.042,26.331,23.98,26.451,24.09c0.286-0.418,0.553-0.848,0.79-1.293c0-0.001,0.108-0.208,0.109-0.208
		c1.134-2.214,1.708-4.742,1.708-7.576V17.454c-0.139,0-28.922,0.006-29.059,0.006V17.463 M40.402,18.421l24.567-0.004l0.07,0.07
		v13.989c0,2.551-0.496,4.843-1.48,6.865l-0.108,0.022l-23.097-20.82L40.402,18.421z M28.581,10.557
		c-0.133-0.121-0.313-0.185-0.505-0.177c-0.218,0.009-0.433,0.109-0.585,0.278c0,0-0.744,0.817-0.78,0.856
		c-0.012,0.291,0.088,0.576,0.307,0.775c0.211,0.192,0.488,0.268,0.766,0.241c0.038-0.042,0.8-0.876,0.8-0.876
		C28.886,11.32,28.877,10.828,28.581,10.557 M51.647,21.498c-0.192-0.042-1.143-0.247-1.143-0.247l-0.045-0.034
		c0,0-0.488-0.838-0.588-1.009c-0.1,0.171-0.588,1.009-0.588,1.009l-0.046,0.034c0,0-0.949,0.205-1.143,0.247
		c0.132,0.147,0.779,0.872,0.779,0.872l0.018,0.053c0,0-0.098,0.966-0.118,1.162c0.182-0.079,1.069-0.47,1.069-0.47h0.058
		c0,0,0.888,0.391,1.067,0.47c-0.019-0.196-0.117-1.162-0.117-1.162l0.019-0.053C50.87,22.37,51.516,21.646,51.647,21.498
		 M56.845,26.182c-0.192-0.042-1.142-0.248-1.142-0.248l-0.046-0.033c0,0-0.488-0.838-0.587-1.009
		c-0.101,0.171-0.59,1.009-0.59,1.009l-0.045,0.033c0,0-0.948,0.206-1.143,0.248c0.132,0.147,0.779,0.872,0.779,0.872l0.018,0.054
		c0,0-0.098,0.966-0.118,1.162c0.182-0.079,1.069-0.471,1.069-0.471h0.056c0,0,0.891,0.392,1.071,0.471
		c-0.021-0.196-0.119-1.162-0.119-1.162l0.017-0.054C56.065,27.054,56.714,26.329,56.845,26.182 M61.894,30.956
		c-0.193-0.041-1.143-0.246-1.143-0.246l-0.046-0.033c0,0-0.488-0.84-0.588-1.01c-0.1,0.17-0.588,1.01-0.588,1.01l-0.046,0.033
		c0,0-0.948,0.205-1.143,0.246c0.132,0.148,0.78,0.872,0.78,0.872l0.018,0.054c0,0-0.099,0.965-0.119,1.162
		c0.182-0.08,1.069-0.471,1.069-0.471h0.056c0,0,0.89,0.392,1.07,0.471c-0.02-0.196-0.119-1.162-0.119-1.162l0.019-0.054
		C61.114,31.828,61.762,31.104,61.894,30.956 M32.301,16.9c0.068-0.089,0.138-0.175,0.215-0.26c0.309-0.338,0.656-0.605,1.017-0.805
		c0.15-0.308,0.104-0.669-0.135-0.888c-0.135-0.121-0.313-0.186-0.506-0.178c-0.219,0.009-0.433,0.11-0.586,0.279
		c0,0-0.743,0.816-0.779,0.856c-0.012,0.291,0.088,0.574,0.307,0.775C31.967,16.8,32.129,16.869,32.301,16.9 M39.599,34.877h0.058
		c0,0,0.887,0.391,1.067,0.471c-0.02-0.197-0.117-1.163-0.117-1.163l0.018-0.054c0,0,0.646-0.725,0.779-0.872
		c-0.194-0.042-1.144-0.247-1.144-0.247l-0.046-0.033c0,0-0.487-0.838-0.587-1.009c-0.099,0.171-0.588,1.009-0.588,1.009
		l-0.046,0.033c0,0-0.949,0.205-1.143,0.247c0.131,0.147,0.779,0.872,0.779,0.872l0.017,0.054c0,0-0.097,0.966-0.116,1.163
		C38.711,35.268,39.599,34.877,39.599,34.877 M30.187,13.115c0.305-0.334,0.295-0.823-0.001-1.094
		c-0.133-0.121-0.312-0.185-0.505-0.178c-0.218,0.009-0.431,0.109-0.584,0.278c0,0-0.745,0.817-0.782,0.857
		c-0.011,0.291,0.09,0.575,0.31,0.775c0.211,0.192,0.488,0.267,0.765,0.239C29.427,13.951,30.187,13.115,30.187,13.115
		 M33.695,20.976c0,0.125-0.006,11.5-0.006,11.5c0,6.147,2.691,10.866,8.001,14.034c3.515,2.098,7.071,2.813,8.075,2.98
		c0,0,0.063,0.01,0.08,0.013c0.019-0.003,0.08-0.013,0.08-0.013h-0.001c1.006-0.168,4.563-0.883,8.076-2.98
		c0.285-0.169,0.561-0.346,0.831-0.523c0.002-0.002,0.496-0.34,0.498-0.34c0.284-0.203,0.556-0.412,0.823-0.625
		c-0.122-0.111-26.361-24.009-26.408-24.051C33.728,20.973,33.712,20.975,33.695,20.976 M34.656,24.279l0.116-0.052l23.293,20.997
		l-0.009,0.111c-0.179,0.116-0.359,0.235-0.549,0.35c-3.271,1.952-6.576,2.652-7.649,2.841h-0.023
		c-1.074-0.188-4.38-0.889-7.651-2.841c-4.995-2.981-7.53-7.428-7.53-13.209L34.656,24.279z M69.763,45.84l-4.038-3.678
		c1.707-2.795,2.571-6.049,2.571-9.687V15.158L40.68,15.164c0.038-0.268,0.02-0.543-0.065-0.801l-0.401-1.282
		c-0.114-0.364-0.375-1.197-1.273-1.266c-0.045-0.01-1.485-0.319-1.485-0.319c-0.113-0.023-0.232-0.035-0.355-0.035l-0.072,0.001
		c-0.613,0.025-1.191,0.353-1.508,0.853l-0.852,1.337c-0.016-0.015-0.032-0.03-0.048-0.045c-0.28-0.255-0.611-0.44-0.97-0.547
		c-0.139-0.347-0.354-0.659-0.638-0.917c-0.281-0.256-0.614-0.442-0.974-0.548c-0.139-0.346-0.353-0.66-0.63-0.915
		c-0.282-0.256-0.615-0.442-0.976-0.548c-0.138-0.347-0.352-0.662-0.632-0.918c-0.28-0.253-0.61-0.437-0.966-0.543
		c-0.139-0.348-0.355-0.66-0.638-0.916c-0.461-0.421-1.063-0.653-1.694-0.653l-0.104,0.002c-0.698,0.028-1.375,0.344-1.856,0.869
		l-1.394,1.532c-0.476,0.521-0.729,1.218-0.695,1.911c0.032,0.677,0.32,1.298,0.813,1.746c0.28,0.254,0.611,0.44,0.97,0.546
		c0.139,0.348,0.354,0.661,0.638,0.919c0.279,0.254,0.61,0.439,0.968,0.545c0.138,0.346,0.354,0.659,0.637,0.917
		c0.281,0.256,0.615,0.442,0.976,0.548c0.138,0.346,0.351,0.66,0.63,0.914c0.279,0.255,0.61,0.44,0.968,0.547
		c0.138,0.348,0.354,0.661,0.636,0.916c0.017,0.015,0.033,0.03,0.051,0.045l-1.252,0.971c-0.601,0.464-0.86,1.295-0.633,2.016
		c0,0,0.327,1.045,0.438,1.399c0.136,0.923,1.076,1.122,1.397,1.19l1.322,0.284c0.117,0.024,0.236,0.035,0.354,0.035h0.032
		l-0.005,7.522c0,16.761,18.116,19.3,18.3,19.324l0.152,0.021l0.152-0.021c0.254-0.033,5.972-0.812,10.977-4.517l4.084,3.721
		l6.79,1.447L69.763,45.84z M65.608,49.977l-0.033-0.016c0,0-4.457-4.061-4.543-4.139c-4.968,4.053-11.177,4.869-11.177,4.869
		h-0.019c0,0-17.323-2.227-17.323-18.216c0,0,0.003-9.329,0.004-9.787c-0.165,0.259-0.517,0.811-0.517,0.811
		c-0.126,0.196-0.363,0.325-0.605,0.335c-0.054,0.002-0.108-0.002-0.162-0.012l-0.003-0.001c0,0-1.304-0.28-1.305-0.28
		c-0.326-0.069-0.519-0.1-0.53-0.313c-0.021-0.072-0.474-1.517-0.474-1.517h0.001c-0.089-0.279,0.018-0.619,0.249-0.798v0.001
		c0,0,2.3-1.784,2.351-1.824c-0.006-0.182,0.012-0.369,0.045-0.559c-0.04,0.007-0.082,0.012-0.124,0.014
		c-0.375,0.015-0.73-0.112-1-0.358c-0.274-0.248-0.434-0.595-0.451-0.974c-0.002-0.05,0-0.1,0.005-0.149
		c-0.052,0.009-0.105,0.016-0.158,0.018c-0.375,0.015-0.73-0.112-1.001-0.358c-0.323-0.294-0.466-0.709-0.443-1.123
		c-0.052,0.009-0.105,0.016-0.161,0.019c-0.375,0.014-0.729-0.113-1.002-0.359c-0.284-0.26-0.444-0.622-0.45-1.02
		c0-0.036,0.005-0.069,0.008-0.103c-0.053,0.009-0.106,0.016-0.161,0.018c-0.375,0.015-0.731-0.112-1.001-0.357
		c-0.273-0.249-0.433-0.594-0.45-0.972c-0.003-0.052,0-0.102,0.004-0.152c-0.052,0.009-0.104,0.016-0.158,0.018
		c-0.376,0.015-0.73-0.113-1.001-0.359c-0.272-0.247-0.433-0.594-0.45-0.971c-0.019-0.401,0.129-0.803,0.403-1.105l1.396-1.533
		c0.278-0.303,0.668-0.488,1.072-0.504c0.375-0.015,0.729,0.112,1.001,0.359c0.286,0.26,0.445,0.623,0.451,1.02
		c0,0.035-0.002,0.069-0.006,0.103c0.053-0.009,0.105-0.016,0.159-0.017l-0.001-0.001h0.001v0.001c0.374-0.017,0.729,0.11,1,0.356
		c0.323,0.294,0.466,0.71,0.443,1.124c0.053-0.009,0.105-0.017,0.162-0.019c0.374-0.015,0.729,0.114,1,0.359
		c0.322,0.294,0.466,0.709,0.442,1.123c0.053-0.008,0.107-0.016,0.162-0.019c0.374-0.014,0.73,0.113,1,0.359
		c0.286,0.26,0.446,0.624,0.451,1.02c0.001,0.035-0.001,0.069-0.004,0.102c0.051-0.009,0.104-0.016,0.159-0.018
		c0.374-0.014,0.729,0.113,1,0.36c0.313,0.285,0.457,0.684,0.443,1.087c0.187-0.05,0.372-0.085,0.556-0.096
		c0.035-0.055,1.598-2.509,1.598-2.509v-0.001v0.001c0.123-0.194,0.368-0.326,0.61-0.336h0.001c0.055-0.002,0.108,0.002,0.16,0.012
		l0,0l1.304,0.28h0.001c0.121,0.027,0.223,0.048,0.264,0.056c0.007-0.001,0.008-0.001,0.002,0c0,0,0.001,0,0.001,0.001
		c0.2-0.008,0.237,0.156,0.341,0.488l0.401,1.28l-0.001-0.001c0.09,0.276-0.016,0.617-0.247,0.798c0,0-0.778,0.602-1.018,0.789
		c0.402,0,28.827-0.006,28.827-0.006l0.069,0.07v16.129c0,4.15-1.175,7.372-2.91,9.873c0.088,0.08,4.505,4.103,4.505,4.103
		l0.021,0.031l1.376,4.36l-0.081,0.09L65.608,49.977z M36.695,18.596c-0.159,0.389-0.392,0.77-0.699,1.12
		c0.098,0.089,32.342,29.457,32.692,29.776c-0.124-0.393-0.768-2.435-0.777-2.467C67.883,47,36.839,18.727,36.695,18.596
		 M43.845,38.87c0,0-0.099,0.967-0.119,1.162c0.182-0.078,1.07-0.471,1.07-0.471h0.056c0,0,0.89,0.393,1.07,0.471
		c-0.02-0.195-0.118-1.162-0.118-1.162l0.019-0.055c0,0,0.646-0.724,0.777-0.871c-0.192-0.041-1.142-0.248-1.142-0.248l-0.046-0.033
		c0,0-0.488-0.838-0.587-1.008c-0.101,0.17-0.589,1.008-0.589,1.008l-0.047,0.033c0,0-0.948,0.207-1.142,0.248
		c0.132,0.147,0.779,0.871,0.779,0.871L43.845,38.87z M30.353,22.883c0.213,0.063,0.837,0.221,0.854,0.226
		c0.094,0.019,0.218-0.033,0.268-0.112c0,0,1.251-1.965,1.339-2.103c-0.16-0.05-0.314-0.119-0.455-0.211
		C32.288,20.76,30.477,22.747,30.353,22.883 M32.015,13.999L32.015,13.999c-0.003-0.204-0.083-0.386-0.224-0.515
		c-0.134-0.121-0.313-0.185-0.504-0.177c-0.219,0.008-0.433,0.109-0.585,0.277c0,0-0.745,0.817-0.781,0.857
		c-0.011,0.29,0.089,0.574,0.309,0.774c0.21,0.192,0.488,0.267,0.766,0.239c0.038-0.041,0.797-0.875,0.797-0.875
		C31.939,14.417,32.018,14.212,32.015,13.999 M48.894,43.645c0,0-0.099,0.965-0.119,1.161c0.182-0.079,1.069-0.471,1.069-0.471
		h0.056c0,0,0.89,0.392,1.069,0.471c-0.019-0.196-0.117-1.161-0.117-1.161l0.019-0.055c0,0,0.646-0.725,0.777-0.872
		c-0.192-0.042-1.142-0.247-1.142-0.247l-0.046-0.033c0,0-0.489-0.839-0.588-1.01c-0.101,0.171-0.588,1.01-0.588,1.01l-0.046,0.033
		c0,0-0.948,0.205-1.143,0.247c0.132,0.147,0.78,0.872,0.78,0.872L48.894,43.645z M35.159,19.05c0.632-0.693,0.692-1.62,0.195-2.073
		c-0.501-0.455-1.417-0.308-2.047,0.385c-0.632,0.692-0.693,1.617-0.194,2.072h0.001C33.612,19.891,34.527,19.741,35.159,19.05"/>
</g>
</svg>
