<?xml version="1.0" encoding="iso-8859-1"?>
<!-- Generator: Adobe Illustrator 16.0.0, SVG Export Plug-In . SVG Version: 6.00 Build 0)  -->
<!DOCTYPE svg PUBLIC "-//W3C//DTD SVG 1.1//EN" "http://www.w3.org/Graphics/SVG/1.1/DTD/svg11.dtd">
<svg version="1.1" id="Layer_1" xmlns="http://www.w3.org/2000/svg" xmlns:xlink="http://www.w3.org/1999/xlink" x="0px" y="0px"
	 width="192.364px" height="135.834px" viewBox="0 0 192.364 135.834" style="enable-background:new 0 0 192.364 135.834;"
	 xml:space="preserve">
<path d="M17.129,122.145h-3.44c0.256-0.569,0.532-1.085,0.532-1.968v-9.75c0-0.885-0.276-1.417-0.532-1.969h4.562
	c1.526,0,3.605,0.184,4.672,2.061c0.589,1.029,0.626,2.574-0.074,3.604c-1.104,1.675-3.127,2.023-5.5,2.023h-0.736v4.065
	C16.613,121.133,16.76,121.354,17.129,122.145 M18.692,114.565c0.883-0.166,1.674-0.589,2.023-1.508
	c0.259-0.662,0.129-1.712-0.349-2.319c-0.901-1.121-2.631-0.992-3.753-0.846v4.69C17.478,114.657,18.324,114.62,18.692,114.565"/>
<path d="M34.604,110.426c0-0.883-0.276-1.417-0.534-1.967h3.44c-0.368,0.79-0.515,1.01-0.515,1.93v9.824
	c0,0.92,0.147,1.141,0.515,1.932h-3.44c0.258-0.568,0.534-1.085,0.534-1.968v-4.545h-6.844v4.581c0,0.92,0.147,1.141,0.515,1.932
	h-3.44c0.258-0.568,0.534-1.085,0.534-1.968v-9.751c0-0.883-0.276-1.417-0.534-1.967h3.44c-0.368,0.79-0.515,1.01-0.515,1.93v3.568
	h6.844V110.426z"/>
<path d="M40.469,108.458h3.458c-0.385,0.791-0.533,1.011-0.533,1.931v9.824c0,0.92,0.148,1.141,0.533,1.931h-3.458
	c0.258-0.567,0.534-1.084,0.534-1.968v-9.751C41.003,109.543,40.727,109.009,40.469,108.458"/>
<path d="M52.498,120.01v-8.646c0-1.214-0.276-2.355-0.533-2.906c0.036,0.019,5.721,0,5.721,0c2.391,0,4.783,0.22,6.494,3.293
	c1.104,2.005,0.975,5.28-0.258,7.229c-1.968,3.056-4.617,3.165-7.119,3.165h-4.838C52.204,121.74,52.498,121.242,52.498,120.01
	 M56.104,120.69c1.913,0,4.102,0.02,5.445-2.208c0.975-1.655,0.884-4.946-0.018-6.437c-1.38-2.227-3.495-2.356-5.261-2.356h-1.38
	v11.001H56.104z"/>
<path d="M77.552,119.605l-0.846,2.539h-8.702c0.295-0.516,0.534-0.883,0.534-1.968v-9.658c0-1.141-0.313-1.675-0.534-2.061h8.37
	l0.111,2.097c-1.417-0.827-3.403-1.177-5.556-0.827v4.249c1.343,0,3.312,0,4.397-0.441v2.741c-1.214-0.663-2.116-0.626-3.587-0.626
	h-0.81v4.875C72.972,120.71,75.16,120.837,77.552,119.605"/>
<path d="M88.974,119.697l-0.791,2.448h-8.168c0.332-0.479,0.534-1.05,0.534-2.355v-8.997c0-1.029-0.276-1.784-0.534-2.335h3.459
	c-0.386,0.79-0.534,1.01-0.534,1.93v10.083C85.736,121.115,87.853,120.378,88.974,119.697"/>
<path d="M88.061,110.665l0.718-2.207h10.061l-0.697,2.207c-1.233-0.791-2.299-0.846-3.459-0.772v10.32
	c0,0.92,0.149,1.141,0.516,1.931h-3.441c0.258-0.567,0.535-1.084,0.535-1.968v-10.283C90.637,109.783,89.293,109.929,88.061,110.665
	"/>
<path d="M110.988,120.287c0.533,1.011,0.809,1.379,1.342,1.857h-3.973c0.441-1.049,0.109-1.748-0.59-3.145l-0.68-1.38h-4.895
	l-0.844,1.819c-0.627,1.381-0.867,1.748-0.516,2.705h-2.65c0.258-0.331,0.664-0.772,1.049-1.674l5.686-12.417L110.988,120.287z
	 M106.408,116.037l-1.822-3.881l-1.693,3.881H106.408z"/>
<path d="M116.042,110.665l0.719-2.207h10.063l-0.699,2.207c-1.232-0.791-2.301-0.846-3.459-0.772v10.32
	c0,0.92,0.148,1.141,0.516,1.931h-3.441c0.258-0.567,0.535-1.084,0.535-1.968v-10.283
	C118.619,109.783,117.275,109.929,116.042,110.665"/>
<path d="M138.853,110.426c0-0.883-0.277-1.417-0.533-1.967h3.439c-0.369,0.79-0.514,1.01-0.514,1.93v9.824
	c0,0.92,0.145,1.141,0.514,1.932h-3.439c0.256-0.568,0.533-1.085,0.533-1.968v-4.545h-6.844v4.581c0,0.92,0.146,1.141,0.516,1.932
	h-3.439c0.256-0.568,0.531-1.085,0.531-1.968v-9.751c0-0.883-0.275-1.417-0.531-1.967h3.439c-0.369,0.79-0.516,1.01-0.516,1.93
	v3.568h6.844V110.426z"/>
<path d="M154.267,119.605l-0.848,2.539h-8.701c0.295-0.516,0.535-0.883,0.535-1.968v-9.658c0-1.141-0.313-1.675-0.535-2.061h8.369
	l0.111,2.097c-1.416-0.827-3.404-1.177-5.555-0.827v4.249c1.344,0,3.311,0,4.396-0.441v2.741c-1.213-0.663-2.115-0.626-3.586-0.626
	h-0.811v4.875C149.685,120.71,151.875,120.837,154.267,119.605"/>
<path d="M154.781,110.665l0.717-2.207h10.063l-0.699,2.207c-1.232-0.791-2.299-0.846-3.459-0.772v10.32
	c0,0.92,0.148,1.141,0.516,1.931h-3.439c0.256-0.567,0.533-1.084,0.533-1.968v-10.283
	C157.355,109.783,156.011,109.929,154.781,110.665"/>
<path d="M177.332,120.287c0.535,1.011,0.811,1.379,1.344,1.857h-3.973c0.441-1.049,0.109-1.748-0.59-3.145l-0.68-1.38h-4.895
	l-0.846,1.819c-0.625,1.381-0.865,1.748-0.516,2.705h-2.648c0.256-0.331,0.662-0.772,1.047-1.674l5.686-12.417L177.332,120.287z
	 M172.751,116.037l-1.82-3.881l-1.693,3.881H172.751z"/>
<path d="M135.103,95.736l-2.65-8.405l-8.77-7.983c3.365-4.811,5.65-11.023,5.65-19.049V29.215l-55.95,0.012l2.274-1.762
	c0.401-0.315,0.587-0.914,0.432-1.39l-0.773-2.467c-0.219-0.701-0.267-0.857-0.524-0.847c-0.004,0.001-0.009,0-0.015,0.001
	c-0.066-0.014-0.28-0.058-0.534-0.114l-2.511-0.538c-0.087-0.017-0.181-0.025-0.278-0.021c-0.427,0.017-0.856,0.252-1.067,0.585
	l-3.114,4.89c-0.422,0.019-0.856,0.101-1.292,0.231c0.076-0.801-0.185-1.607-0.805-2.17c-0.493-0.449-1.143-0.684-1.831-0.657
	c-0.158,0.006-0.313,0.035-0.467,0.067c0.014-0.121,0.032-0.239,0.03-0.361c-0.01-0.729-0.304-1.394-0.827-1.869
	c-0.492-0.449-1.143-0.683-1.83-0.655c-0.156,0.007-0.31,0.033-0.462,0.066c0.095-0.819-0.166-1.653-0.8-2.23
	c-0.493-0.448-1.145-0.684-1.832-0.657c-0.157,0.006-0.309,0.033-0.463,0.066c0.097-0.819-0.166-1.653-0.798-2.23
	c-0.496-0.448-1.146-0.682-1.832-0.652c-0.157,0.005-0.311,0.032-0.465,0.064c0.013-0.119,0.031-0.239,0.029-0.361
	c-0.011-0.729-0.302-1.394-0.825-1.867c-0.496-0.451-1.147-0.686-1.833-0.657c-0.742,0.028-1.461,0.368-1.973,0.927l-2.69,2.954
	c-0.506,0.557-0.777,1.295-0.742,2.033c0.032,0.692,0.326,1.325,0.823,1.777c0.494,0.449,1.145,0.685,1.834,0.657
	c0.155-0.006,0.31-0.032,0.461-0.065c-0.018,0.149-0.032,0.3-0.025,0.452c0.031,0.692,0.325,1.323,0.825,1.779
	c0.493,0.448,1.144,0.682,1.831,0.653c0.157-0.006,0.313-0.032,0.466-0.065c-0.015,0.12-0.032,0.24-0.03,0.362
	c0.01,0.73,0.305,1.393,0.827,1.867c0.494,0.45,1.143,0.684,1.833,0.656c0.156-0.006,0.309-0.033,0.462-0.065
	c-0.096,0.819,0.166,1.652,0.799,2.229c0.492,0.448,1.144,0.683,1.832,0.655c0.155-0.007,0.309-0.033,0.462-0.065
	c-0.019,0.147-0.033,0.297-0.026,0.447c0.032,0.695,0.324,1.328,0.824,1.781c0.493,0.451,1.144,0.684,1.832,0.655
	c0.137-0.005,0.27-0.032,0.403-0.058c-0.09,0.446-0.131,0.889-0.11,1.311l-4.582,3.554c-0.401,0.31-0.588,0.906-0.435,1.391
	c0,0,0.887,2.836,0.916,2.93c0,0.309,0.211,0.354,0.918,0.504l2.516,0.541c0.093,0.019,0.188,0.025,0.284,0.021
	c0.425-0.018,0.84-0.246,1.057-0.584l1.244-1.953l-0.007,19.325c0,30.664,33.268,34.97,33.268,34.97s11.981-1.555,21.563-9.426
	l8.84,8.054L135.103,95.736z M132.654,93.511l-0.021-0.005L69.189,35.722c0.675-0.743,1.17-1.567,1.483-2.398L131,88.264
	L132.654,93.511z M127.337,60.299c0,5.48-1.109,10.375-3.307,14.663l-0.211,0.4c-0.486,0.91-1.027,1.787-1.615,2.637L71.063,31.425
	c0.002-0.067,0-0.134,0.002-0.2l56.272-0.011V60.299z M71.112,23.492c0.127-0.2,0.426-0.322,0.659-0.276c0,0,1.745,0.42,1.849,0.516
	l-4.039,4.432c-0.34-0.231-0.722-0.394-1.129-0.492L71.112,23.492z M63.728,35.264c-1.041-0.949-0.878-2.822,0.367-4.185
	c1.24-1.363,3.091-1.698,4.134-0.75c1.038,0.945,0.876,2.821-0.368,4.187C66.618,35.875,64.768,36.217,63.728,35.264 M50.516,19.171
	c-0.584,0.069-1.178-0.086-1.628-0.496c-0.468-0.428-0.675-1.034-0.639-1.646l1.539-1.69c0.32-0.35,0.766-0.561,1.225-0.578
	c0.401-0.017,0.783,0.118,1.068,0.378c0.301,0.274,0.471,0.661,0.478,1.092c0.006,0.441-0.161,0.872-0.466,1.208L50.516,19.171z
	 M53.608,21.991c-0.583,0.07-1.177-0.087-1.626-0.497c-0.468-0.426-0.675-1.034-0.639-1.644l1.54-1.692
	c0.32-0.35,0.766-0.561,1.223-0.578c0.403-0.017,0.785,0.118,1.069,0.377c0.634,0.578,0.639,1.612,0.013,2.303L53.608,21.991z
	 M56.703,24.809c-0.583,0.072-1.177-0.084-1.626-0.494c-0.469-0.426-0.677-1.032-0.641-1.643l1.542-1.692
	c0.319-0.351,0.764-0.56,1.221-0.58c0.405-0.015,0.785,0.119,1.07,0.378c0.634,0.58,0.638,1.61,0.01,2.3L56.703,24.809z
	 M59.798,27.626c-0.584,0.072-1.179-0.082-1.628-0.493c-0.467-0.426-0.674-1.032-0.64-1.642l1.543-1.691
	c0.318-0.351,0.761-0.562,1.22-0.579c0.403-0.017,0.782,0.118,1.068,0.378c0.301,0.273,0.47,0.662,0.475,1.088
	c0.007,0.447-0.157,0.874-0.464,1.211L59.798,27.626z M60.624,28.311l1.538-1.691c0.32-0.35,0.766-0.563,1.225-0.58
	c0.405-0.017,0.785,0.12,1.07,0.378c0.521,0.476,0.61,1.258,0.277,1.904c-0.699,0.381-1.371,0.896-1.967,1.549
	c-0.164,0.182-0.319,0.367-0.462,0.559c-0.381-0.057-0.745-0.203-1.044-0.476C60.795,29.527,60.588,28.921,60.624,28.311
	 M60.776,42.103c-0.127,0.202-0.425,0.324-0.659,0.275c0,0-1.745-0.418-1.847-0.515l4.066-4.462c0.335,0.236,0.71,0.402,1.111,0.505
	L60.776,42.103z M114.421,85.79l-0.961,0.657c-0.523,0.348-1.057,0.688-1.607,1.016c-6.795,4.055-13.666,5.433-15.611,5.759
	l-0.175,0.028l-0.176-0.028c-1.944-0.326-8.816-1.704-15.61-5.759c-10.275-6.131-15.485-15.271-15.485-27.164l0.009-22.283
	c0.092-0.009,0.185-0.018,0.278-0.03l51.055,46.499C115.583,84.931,115.017,85.367,114.421,85.79"/>
<path d="M122.376,73.472c1.887-3.877,2.838-8.274,2.838-13.173V33.338l-47.349,0.01L122.376,73.472z M114.611,56.764l1.25-2.147
	l1.25,2.147l2.428,0.522l-1.654,1.854l0.25,2.47l-2.273-1.001l-2.271,1.001l0.252-2.47l-1.658-1.854L114.611,56.764z M104.884,47.56
	l1.25-2.145l1.248,2.145l2.428,0.525l-1.654,1.854l0.252,2.472l-2.275-1.002l-2.271,1.002l0.25-2.472l-1.656-1.854L104.884,47.56z
	 M96.118,36.389l1.247,2.145l2.43,0.525l-1.654,1.853l0.25,2.471l-2.272-1l-2.273,1l0.25-2.471l-1.655-1.853l2.427-0.525
	L96.118,36.389z"/>
<path d="M81.37,85.639c6.284,3.752,12.636,5.098,14.698,5.458c2.061-0.36,8.41-1.706,14.695-5.458
	c0.363-0.218,0.707-0.445,1.055-0.67l-44.89-40.468l-0.006,15.798C66.922,71.392,71.783,79.916,81.37,85.639 M94.866,79.431
	l1.251-2.146l1.25,2.146l2.428,0.522l-1.654,1.854l0.25,2.471l-2.273-1.001l-2.273,1.001l0.253-2.471l-1.657-1.854L94.866,79.431z
	 M85.139,70.228l1.251-2.145l1.248,2.145l2.428,0.524l-1.654,1.854l0.249,2.472l-2.272-1.001l-2.274,1.001l0.252-2.472l-1.657-1.854
	L85.139,70.228z M72.694,61.726l2.428-0.525l1.251-2.144L77.62,61.2l2.43,0.525l-1.655,1.854l0.249,2.472l-2.271-1.001L74.1,66.051
	l0.25-2.472L72.694,61.726z"/>
</svg>
