<?xml version="1.0" encoding="iso-8859-1"?>
<!-- Generator: Adobe Illustrator 16.0.0, SVG Export Plug-In . SVG Version: 6.00 Build 0)  -->
<!DOCTYPE svg PUBLIC "-//W3C//DTD SVG 1.1//EN" "http://www.w3.org/Graphics/SVG/1.1/DTD/svg11.dtd">
<svg version="1.1" id="Layer_1" xmlns="http://www.w3.org/2000/svg" xmlns:xlink="http://www.w3.org/1999/xlink" x="0px" y="0px"
	 width="323.714px" height="152.44px" viewBox="0 0 323.714 152.44" style="enable-background:new 0 0 323.714 152.44;"
	 xml:space="preserve">
<path d="M231.769,101.097c-2.232-2.461-3.916-4.64-5.404-7.89l-19.887-42.211l-0.086-0.183h-2.918l-16.6,37.664
	c-3.82,8.819-5.357,10.79-7.111,12.613l-0.52,0.536h53.006L231.769,101.097z M217.364,94.596H189.44
	c0.324-1.311,0.754-2.575,1.273-3.766l12.881-28.48l13.057,30.512C216.923,93.491,217.157,94.064,217.364,94.596"/>
<path d="M184.483,76.053c0-8.717-8.088-18.044-20.135-18.073c0.162-2.467,0.641-3.842,1.975-6.714l0.211-0.452h-13.887l0.352,0.501
	c1.322,1.882,1.783,4.143,1.941,6.672c-11.89,0.172-19.854,9.419-19.854,18.066c0,11.245,10.25,18.251,19.867,18.402
	c-0.15,2.682-0.608,3.691-1.866,6.461l-0.323,0.711h13.271l0.479-0.017l-0.195-0.445c-1.318-3.005-1.809-4.124-1.973-6.703
	C174.042,94.436,184.483,87.402,184.483,76.053 M144.271,76.053c0-6.969,2.832-14.415,10.75-14.612v29.655
	C147.103,90.894,144.271,83.227,144.271,76.053 M164.271,61.432h0.021c8.115,0.038,11.008,7.577,11.008,14.621
	c0,7.251-2.893,15.014-11.008,15.052h-0.021V61.432z"/>
<path d="M251.079,49.868c-12.932,0-21.965,10.955-21.965,26.641c0,16.717,8.006,25.766,21.965,25.766
	c13.867,0,21.82-9.049,21.82-25.766C272.899,64.22,267.187,49.868,251.079,49.868 M251.153,97.489
	c-8.197,0-12.182-6.523-12.182-21.054c0-13.437,4.666-21.785,12.182-21.785c7.67,0,11.895,7.736,11.895,21.785
	C263.048,90.765,259.046,97.489,251.153,97.489"/>
<path d="M243.163,81.053v-8.581c2.822,1.307,3.678,1.459,7.104,1.459h1.432c3.83,0,4.281-0.201,7.152-1.459v8.581
	c-2.77-1.258-3.123-1.461-7.152-1.461h-1.432C247.345,79.592,245.026,79.744,243.163,81.053"/>
<path d="M123.356,109.853l-2.652-8.405l-8.768-7.983c3.365-4.811,5.65-11.023,5.65-19.049V43.331l-55.951,0.012l2.274-1.762
	c0.401-0.315,0.587-0.914,0.432-1.39l-0.773-2.467c-0.219-0.701-0.267-0.856-0.524-0.847c-0.004,0.001-0.009,0-0.015,0.001
	c-0.066-0.014-0.28-0.058-0.534-0.114l-2.511-0.538c-0.087-0.018-0.181-0.024-0.278-0.021c-0.427,0.017-0.856,0.252-1.067,0.585
	l-3.114,4.89c-0.422,0.02-0.856,0.1-1.292,0.231c0.076-0.801-0.185-1.607-0.805-2.169c-0.492-0.45-1.143-0.685-1.831-0.658
	c-0.158,0.006-0.313,0.035-0.467,0.067c0.015-0.121,0.032-0.239,0.03-0.361c-0.01-0.729-0.304-1.394-0.827-1.869
	c-0.492-0.449-1.143-0.683-1.83-0.655c-0.156,0.007-0.31,0.033-0.462,0.066c0.095-0.819-0.166-1.653-0.8-2.23
	c-0.493-0.448-1.145-0.684-1.832-0.657c-0.157,0.007-0.309,0.033-0.463,0.066c0.097-0.819-0.166-1.653-0.798-2.23
	c-0.496-0.448-1.146-0.682-1.832-0.652c-0.157,0.005-0.311,0.032-0.465,0.064c0.013-0.118,0.031-0.239,0.029-0.361
	c-0.011-0.729-0.302-1.394-0.825-1.867c-0.496-0.451-1.146-0.686-1.833-0.657c-0.742,0.028-1.461,0.368-1.973,0.927l-2.69,2.954
	c-0.506,0.557-0.777,1.295-0.742,2.033c0.032,0.692,0.326,1.325,0.823,1.777c0.494,0.449,1.145,0.685,1.834,0.657
	c0.155-0.006,0.31-0.032,0.461-0.065c-0.018,0.149-0.032,0.3-0.025,0.452c0.031,0.692,0.325,1.324,0.825,1.779
	c0.493,0.448,1.144,0.682,1.831,0.653c0.157-0.006,0.313-0.032,0.466-0.065c-0.014,0.12-0.032,0.24-0.03,0.362
	c0.01,0.729,0.305,1.393,0.827,1.868c0.494,0.449,1.143,0.683,1.833,0.655c0.156-0.006,0.309-0.033,0.462-0.066
	c-0.096,0.82,0.166,1.653,0.799,2.23c0.492,0.449,1.144,0.683,1.832,0.654c0.155-0.006,0.309-0.031,0.462-0.064
	c-0.019,0.147-0.033,0.297-0.026,0.447c0.032,0.695,0.324,1.329,0.824,1.781c0.493,0.451,1.144,0.684,1.832,0.656
	c0.137-0.006,0.27-0.033,0.403-0.059c-0.09,0.446-0.131,0.889-0.11,1.311l-4.582,3.554c-0.401,0.31-0.588,0.906-0.435,1.391
	c0,0,0.887,2.836,0.916,2.93c0,0.309,0.211,0.354,0.918,0.504l2.516,0.541c0.093,0.019,0.188,0.025,0.284,0.021
	c0.425-0.019,0.84-0.246,1.057-0.584l1.244-1.953l-0.007,19.325c0,30.664,33.268,34.97,33.268,34.97s11.981-1.555,21.563-9.426
	l8.841,8.054L123.356,109.853z M120.906,107.627l-0.021-0.004L57.441,49.838c0.675-0.743,1.17-1.567,1.483-2.398l60.328,54.94
	L120.906,107.627z M115.589,74.415c0,5.48-1.109,10.375-3.307,14.663l-0.21,0.4c-0.486,0.909-1.028,1.786-1.615,2.637L59.315,45.541
	c0.002-0.067,0-0.133,0.002-0.2l56.272-0.011V74.415z M59.364,37.608c0.127-0.199,0.426-0.322,0.659-0.276
	c0,0,1.745,0.42,1.849,0.516l-4.039,4.432c-0.34-0.231-0.722-0.394-1.129-0.492L59.364,37.608z M51.979,49.38
	c-1.041-0.949-0.878-2.822,0.367-4.185c1.24-1.363,3.091-1.698,4.134-0.75c1.038,0.945,0.876,2.821-0.368,4.187
	C54.87,49.992,53.02,50.333,51.979,49.38 M38.768,33.287c-0.584,0.069-1.178-0.085-1.628-0.496
	c-0.468-0.428-0.675-1.034-0.639-1.646l1.539-1.69c0.32-0.35,0.766-0.561,1.225-0.578c0.401-0.017,0.783,0.118,1.068,0.378
	c0.301,0.274,0.471,0.661,0.478,1.092c0.006,0.441-0.161,0.872-0.466,1.208L38.768,33.287z M41.86,36.107
	c-0.583,0.07-1.177-0.087-1.626-0.497c-0.468-0.426-0.675-1.033-0.639-1.644l1.54-1.692c0.32-0.35,0.766-0.561,1.223-0.578
	c0.403-0.017,0.785,0.118,1.069,0.377c0.634,0.578,0.639,1.612,0.013,2.303L41.86,36.107z M44.955,38.925
	c-0.583,0.072-1.177-0.084-1.626-0.494c-0.469-0.426-0.677-1.032-0.641-1.643l1.542-1.692c0.319-0.351,0.764-0.56,1.222-0.58
	c0.404-0.015,0.784,0.119,1.069,0.378c0.634,0.58,0.638,1.61,0.01,2.3L44.955,38.925z M48.05,41.743
	c-0.584,0.071-1.179-0.083-1.628-0.494c-0.466-0.426-0.674-1.032-0.64-1.642l1.543-1.691c0.318-0.351,0.761-0.562,1.22-0.579
	c0.403-0.017,0.782,0.118,1.068,0.377c0.301,0.274,0.47,0.663,0.475,1.089c0.007,0.447-0.157,0.875-0.464,1.212L48.05,41.743z
	 M48.875,42.427l1.538-1.691c0.32-0.35,0.766-0.563,1.225-0.58c0.405-0.017,0.785,0.12,1.07,0.378
	c0.521,0.476,0.61,1.258,0.277,1.904c-0.699,0.381-1.371,0.896-1.967,1.549c-0.164,0.182-0.319,0.367-0.462,0.558
	c-0.381-0.055-0.745-0.202-1.044-0.475C49.047,43.643,48.84,43.037,48.875,42.427 M49.028,56.219
	c-0.127,0.202-0.425,0.324-0.659,0.275c0,0-1.745-0.417-1.847-0.515l4.066-4.462c0.335,0.236,0.71,0.402,1.111,0.505L49.028,56.219z
	 M102.673,99.906l-0.96,0.657c-0.523,0.348-1.057,0.688-1.608,1.016c-6.794,4.055-13.665,5.433-15.611,5.759l-0.175,0.029
	l-0.176-0.029c-1.944-0.326-8.816-1.704-15.61-5.759c-10.275-6.131-15.485-15.271-15.485-27.164l0.009-22.283
	c0.092-0.009,0.185-0.018,0.278-0.03l51.056,46.499C103.836,99.047,103.269,99.483,102.673,99.906"/>
<path d="M110.628,87.588c1.886-3.877,2.837-8.274,2.837-13.174v-26.96l-47.348,0.01L110.628,87.588z M102.862,70.881l1.251-2.148
	l1.249,2.148l2.429,0.522l-1.656,1.854l0.251,2.47l-2.273-1l-2.272,1l0.252-2.47l-1.658-1.854L102.862,70.881z M93.135,61.676
	l1.25-2.145l1.249,2.145l2.428,0.525l-1.655,1.854l0.252,2.472l-2.275-1.002l-2.271,1.002l0.249-2.472l-1.655-1.854L93.135,61.676z
	 M84.369,50.505l1.248,2.146l2.428,0.524l-1.654,1.854l0.25,2.469l-2.272-1l-2.273,1l0.25-2.469l-1.655-1.854l2.427-0.524
	L84.369,50.505z"/>
<path d="M69.622,99.756c6.284,3.751,12.636,5.097,14.698,5.458c2.061-0.361,8.411-1.707,14.695-5.458
	c0.363-0.219,0.708-0.446,1.055-0.672L55.18,58.617l-0.006,15.797C55.174,85.508,60.035,94.033,69.622,99.756 M83.118,93.548
	l1.251-2.147l1.25,2.147l2.427,0.521l-1.654,1.855l0.25,2.471l-2.273-1.002l-2.273,1.002l0.253-2.471l-1.657-1.855L83.118,93.548z
	 M73.391,84.344l1.251-2.145l1.248,2.145l2.428,0.525l-1.654,1.854l0.249,2.473l-2.272-1.001l-2.274,1.001l0.252-2.473l-1.657-1.854
	L73.391,84.344z M60.946,75.842l2.428-0.525l1.251-2.144l1.247,2.144l2.43,0.525l-1.655,1.854l0.249,2.472l-2.271-1.002
	l-2.273,1.002l0.25-2.472L60.946,75.842z"/>
</svg>
